<svg width="38" height="42" xmlns="http://www.w3.org/2000/svg">

 <title>Asset 71</title>
 <g>
  <title>Layer 1</title>
  <g data-name="Layer 2" id="Layer_2">
   <g stroke="null" data-name="Layer 1" id="Layer_1-2">
    <path stroke="null" id="svg_2" fill="#fff" d="m10.42,10.75478a1.32,1.32 0 0 1 -1.31,-1.32l0,-8a1.32,1.32 0 1 1 2.63,0l0,8a1.32,1.32 0 0 1 -1.32,1.32z" class="cls-4"/>
    <path stroke="null" id="svg_3" fill="#fff" d="m27.58,10.75478a1.31,1.31 0 0 1 -1.31,-1.32l0,-8a1.32,1.32 0 1 1 2.63,0l0,8a1.32,1.32 0 0 1 -1.32,1.32z" class="cls-4"/>
    <path stroke="null" id="svg_4" fill="#fff" d="m0,18.39478l0,18.14a5.61,5.61 0 0 0 5.61,5.61l26.79,0a5.62,5.62 0 0 0 5.61,-5.61l0,-18.14l-38.01,0z" class="cls-4"/>
    <path stroke="null" id="svg_5" fill="#fff" d="m38.01,15.76478l0,-6a5.62,5.62 0 0 0 -5.61,-5.61l-0.87,0l0,5.3a3.95,3.95 0 1 1 -7.9,0l0,-5.3l-9.26,0l0,5.3a3.95,3.95 0 1 1 -7.89,0l0,-5.3l-0.87,0a5.61,5.61 0 0 0 -5.61,5.61l0,6l38.01,0z" class="cls-4"/>
   </g>
  </g>
 </g>
</svg>