<svg xmlns="http://www.w3.org/2000/svg" xmlns:xlink="http://www.w3.org/1999/xlink" viewBox="0 0 150.39 80"><defs><style>.cls-1,.cls-4,.cls-6{fill:#1dd7c4;}.cls-1,.cls-2,.cls-3{clip-rule:evenodd;}.cls-2,.cls-7,.cls-9{fill:#db2955;}.cls-10,.cls-12,.cls-3{fill:#f7931e;}.cls-10,.cls-16,.cls-4,.cls-7{fill-rule:evenodd;}.cls-5{clip-path:url(#clip-path);}.cls-8{clip-path:url(#clip-path-2);}.cls-11{clip-path:url(#clip-path-3);}.cls-13{clip-path:url(#clip-path-4);}.cls-14{clip-path:url(#clip-path-5);}.cls-15{clip-path:url(#clip-path-6);}.cls-16{fill:#444346;}</style><clipPath id="clip-path"><path class="cls-1" d="M30.68,49.5,10.07,37.59A74.77,74.77,0,0,0,0,75.2H23.8a51.08,51.08,0,0,1,6.88-25.7"/></clipPath><clipPath id="clip-path-2"><path class="cls-2" d="M100.9,30.68A51.6,51.6,0,0,1,119.71,49.5l20.62-11.91A75.53,75.53,0,0,0,112.8,10.07Z"/></clipPath><clipPath id="clip-path-3"><path class="cls-3" d="M75.2,23.8V0a74.83,74.83,0,0,1,37.6,10.06L100.9,30.68A51.21,51.21,0,0,0,75.2,23.8"/></clipPath><clipPath id="clip-path-4"><path class="cls-2" d="M119.71,49.5l20.62-11.91A74.86,74.86,0,0,1,150.39,75.2h-23.8a51.08,51.08,0,0,0-6.88-25.7"/></clipPath><clipPath id="clip-path-5"><path class="cls-1" d="M49.49,30.68A51.6,51.6,0,0,0,30.68,49.5L10.07,37.59A75.5,75.5,0,0,1,37.59,10.07Z"/></clipPath><clipPath id="clip-path-6"><path class="cls-3" d="M75.2,23.8V0A74.86,74.86,0,0,0,37.59,10.06l11.9,20.62A51.24,51.24,0,0,1,75.2,23.8"/></clipPath></defs><title>Asset 21                </title><g id="Layer_2" data-name="Layer 2"><g id="Layer_1-2" data-name="Layer 1"><path class="cls-4" d="M30.68,49.5,10.07,37.59A74.77,74.77,0,0,0,0,75.2H23.8a51.08,51.08,0,0,1,6.88-25.7"/><g class="cls-5"><rect class="cls-6" y="37.59" width="30.68" height="37.61"/></g><path class="cls-7" d="M100.9,30.68A51.6,51.6,0,0,1,119.71,49.5l20.62-11.91A75.53,75.53,0,0,0,112.8,10.07Z"/><g class="cls-8"><rect class="cls-9" x="100.9" y="10.07" width="39.43" height="39.43"/></g><path class="cls-10" d="M75.2,23.8V0a74.83,74.83,0,0,1,37.6,10.06L100.9,30.68A51.21,51.21,0,0,0,75.2,23.8"/><g class="cls-11"><rect class="cls-12" x="75.2" width="37.6" height="30.68"/></g><path class="cls-7" d="M119.71,49.5l20.62-11.91A74.86,74.86,0,0,1,150.39,75.2h-23.8a51.08,51.08,0,0,0-6.88-25.7"/><g class="cls-13"><rect class="cls-9" x="119.71" y="37.59" width="30.68" height="37.61"/></g><path class="cls-4" d="M49.49,30.68A51.6,51.6,0,0,0,30.68,49.5L10.07,37.59A75.5,75.5,0,0,1,37.59,10.07Z"/><g class="cls-14"><rect class="cls-6" x="10.07" y="10.07" width="39.43" height="39.43"/></g><path class="cls-10" d="M75.2,23.8V0A74.86,74.86,0,0,0,37.59,10.06l11.9,20.62A51.24,51.24,0,0,1,75.2,23.8"/><g class="cls-15"><rect class="cls-12" x="37.59" width="37.61" height="30.68"/></g><path class="cls-16" d="M76.16,76.87a1.93,1.93,0,1,1,.71-2.64,1.93,1.93,0,0,1-.71,2.64m1,2.72a5.83,5.83,0,0,1-.7.25A4.8,4.8,0,0,1,74,70.56a6.68,6.68,0,0,1,.73-.14l61.66-11.6Z"/></g></g></svg>