<svg xmlns="http://www.w3.org/2000/svg" width="539.988" height="779.246" viewBox="0 0 539.988 779.246">
  <g id="Group_74" data-name="Group 74" transform="translate(-1069.021 -4894.754)">
    <g id="Group_69" data-name="Group 69">
      <path id="Path_46" data-name="Path 46" d="M1286.773,5270.5c-1.129-.514-1.342-1.055-1.887-.943a1.656,1.656,0,0,0-1.038,1.981c.315.611,1.277.16,2.359.85,1.319.841,1.195,2.343,1.793,2.359.783.021,1.912-2.528,1.133-3.492C1288.721,5270.745,1288.131,5271.118,1286.773,5270.5Z" fill="#ebebeb"/>
      <path id="Path_47" data-name="Path 47" d="M1270.053,5367.554a2.563,2.563,0,0,0-1.167-.01c-2.094.467-2.766,3.144-4.614,2.844-1.333-.216-1.685-1.727-2.993-1.646-1.147.073-1.255,1.259-2.553,1.393-1.233.126-1.69-.895-2.911-.64-.943.2-1.112.893-1.686.8-.789-.132-1.4-1.61-1.445-2.957-.071-2.382,1.692-2.916,1.6-5.188-.059-1.436-.831-3-1.815-3.2-.611-.123-.8.388-1.652.5a3.9,3.9,0,0,1-3.871-2.644c-.274-1.127.5-1.558.247-2.958a5.777,5.777,0,0,0-1.317-2.344c-1.564-2.386-.187-3.873-1.325-6.527-.817-1.9-2.747-3.982-4.53-3.816-1.055.095-1.289.908-3.471,3.276-3.395,3.687-4.633,3.689-4.913,5.4-.391,2.383,1.817,3.653.983,5.192-.746,1.374-2.68.685-3.979,2.52-.811,1.143-.7,2.33-1.489,2.513-.7.165-1.124-.7-1.929-.525-.842.184-.846,1.235-1.559,1.41-.976.24-1.421-1.6-2.947-2.038-2.081-.594-3.625,2.151-5.643,1.429a11.164,11.164,0,0,1-1.7-1.594,27.725,27.725,0,0,1-2.982-3.436,15.869,15.869,0,0,0-.931-1.4c-2.1-2.249-5.74-.626-6.712-2.181-.868-1.392,1.561-3.465.587-5.008-.715-1.132-2.212-.324-3.582-1.715-1.2-1.211-.593-2.375-1.965-3.615-.979-.887-1.438-.431-2.34-1.27-1.256-1.171-.6-2.28-1.763-4.487-1.036-1.965-2.306-2.5-2.023-3.125.253-.559,1.341-.256,4-1.023a5.391,5.391,0,0,0,1.455-.526c1.642-1.162,1.007-3.562,2.055-3.94.632-.229,1.014.592,2.733,1.316a5.535,5.535,0,0,0,3.61.622c1.841-.552,1.473-2.543,3.592-3.461,1.368-.6,2.322-.11,3.107-1.029.5-.59.739-1.514.415-1.843-.267-.27-.766.014-1.507.122a6.307,6.307,0,0,1-4.316-1.4c-1.026-.69-1.889-1.269-2.114-2.339a3.259,3.259,0,0,1,.461-2.236c.555-1.03,1.863-2.409,3.147-2.219,1.484.218,1.625,2.337,3.1,2.454.4.031,1.045-.351,2.322-1.121,2.189-1.32,2.015-1.464,2.685-1.676,1.952-.619,3.378.6,4-.129.43-.511-.2-1.182.178-2.368a4.168,4.168,0,0,1,1.409-1.826c1.57-1.464,2.808-2.621,3.366-4.085.793-2.073-.088-3.936.923-4.471.5-.268,1.062.009,1.444-.428a1.7,1.7,0,0,0,.161-1.375,6.783,6.783,0,0,1,.963-3.968c.741-1.287,2.223-1.667,5.158-2.382a30.852,30.852,0,0,1,3.526-.639c.371-.045.753-.087,1.154-.122a54.83,54.83,0,0,1,6.995-6.4c1.64-1.225,8.408-4.2,6.978-6.739-.613-1.087-3.652-1.488-4.686-2.043-.255-.137-3.18-2.217-3.355-2.428-1.286-1.529-1.059-3.155-2.822-4.453-.66-.487-5.432-2.409-6.1-1.937a21.526,21.526,0,0,0,.945,4.642c.627.938,3.252,1.68,2.853,3.007-1.683-1.878-3.293-2.071-5.247-2.085-1.1-.006-4.467-.11-5.4.585-1.047.781-2.007,3.595-2.169,4.878-.085.659.235,4,.218,4.012-2.176,1.477-1.2-4.86-1.116-5.288l.008-.067c.214-4.2-.785-3.66-3.688-2.574-1.824.686-3.993,1.044-3.628,3.771.123.918,1.933,3.345,3,3.163a.39.39,0,0,1,.447.4,5.489,5.489,0,0,1-.23,1.486.427.427,0,0,1-.769.1c-.93-1.439-2.271-1.959-3.052-3.213-1.042-1.675,1.2-3.953.342-5.256-.554-.842-4.828,1.851-4.881,3.011-.108,2.42,1.917,1.754,1.238,4.016a.431.431,0,0,1-.8.069,14.516,14.516,0,0,0-1.136-1.989.415.415,0,0,1-.063-.314,1.315,1.315,0,0,0-.229-1,.409.409,0,0,0-.2-.147,2.131,2.131,0,0,0-1.707.131c-.44-.291-1.9.657-2.164.112-.115-.24,3.13-5.9-.881-3.619-.781.446-1.082,2.664-2.073,3.448-.422.337-2.427,1.642-3.553,2.311a.429.429,0,0,1-.634-.469c.107-.469.208-.951-.062-.963-.467-.019-1.449.5-1.629.45-.636-.186-3.6-.8-4.4-.44-1.78.819-1.772,4.208-2.069,6.642a.431.431,0,0,1-.794.182c-.683-1.167-.92,1.357-2.251,1.062-.9-.2-2.306-3.659-2.475-1.031-.059.945,1.877,1.654,1.253,3.1-.005.011-1.682.694-2.516,1.05a.426.426,0,0,1-.574-.27c-.9-2.929-3.914-4.788-3.4-.474.282,2.386,1.037,1.073,2.75,1.951.425.217,3.739,1.7,3.463,2.357-.442,1.051-3-.814-1.882,2.6.592,1.809,1.868,1.553,2.678,1.54a.361.361,0,0,1,.282.583,11.3,11.3,0,0,0-1.285,2.194.42.42,0,0,1-.158.233c-.888.608-.673.3-2.1.386-1.119.068-4.655-1.633-5.233.816-.247,1.05,1.5,1.991,2.924,2.744a.432.432,0,0,1-.115.807,13.382,13.382,0,0,1-2.389.715c-1.882.189-3.434-.566-5.463-.008-2.1.579-2.84,1.606-4.3,2.821a21.6,21.6,0,0,0-2.173,1.688c-.933,2.384.106,2.354,1.247,4a.467.467,0,0,0,.2.159,3.075,3.075,0,0,1,1.849,1.858q.6,1.851,2.138.952a.426.426,0,0,1,.448.016,8.789,8.789,0,0,0,3.085,1.565c1.18.13,3.067-1.938,3.923-1.459.729.4-.562,1.666.427,2.363.629.444.978-.355,1.3-.95a.431.431,0,0,1,.759.017c1.126,2.179-2.224,1.3-2.779,3.8-.61,2.755,3.531-1.071,3.7-1.2,3.681-2.762,2.177-.6,4.729-.867.367-.037,6.764-3.141,5.809-.366a.428.428,0,0,1-.62.222c-1.869-1-4.567,3.223-5.335,5.662a.425.425,0,0,1-.733.145c-.407-.474-.636-.282-1.108.14a.414.414,0,0,1-.657-.172c-.319-.742-1.564-.176-1.8.752-.2.817,2.438.091,1.134,1.977-1.156,1.676-5.227-.048-5.909.271-.75.35-2.89,2.842-3.954,4.067a.437.437,0,0,1-.616.024c-1.1-.89-5.606,1.52-6.036,2.983-1.169,3.992,2.91,2.726,5.226,3.078a.435.435,0,0,1,.136.808c-.749.446-.69,1.13-.877,1.769a.429.429,0,0,1-.842-.119c.014-1.165-.216-2.5-1.473-1.566a7.9,7.9,0,0,0-.943,3.326c.185,1.813,1.081,1,1.439,2.534,1.218,5.263-2.7-2.4-5.051-3.213-2.209-.757-3.726.328-5.762-.477-2.3-.91-3.09-3.456-6.1-3.212-3.38.269-2.179,1.847-3.437,4.284-.937,1.809-2.826,2.6-3.381,4.995-.6-1.026.873-1.841.566-2.757-.357-1.065-.948-1.15-1.361-2.043-.279-.606.384-1.58-.07-2.222-.143-.2-.6-.091-1.1.081a.428.428,0,0,1-.5-.643c2.02-3-1.071-5.637-4.721-6.567a.416.416,0,0,0-.224,0c-.531.152-1.065.293-1.6.429-.082-.01-4.631-1.117-5.081-1.253-1.775-.523-4.1-.234-5.894-.64-1.478-.336-8.649-5.3-9.469-1.023-.47,2.442,6.364,2.646.532,3.411-1.63.215-2.127.38-3.863-.851-2.22-1.57-2.013-4.461-5.615-.674-1.589,1.669-1.451,3.345-1.94,5.47-.364,1.582-.692.915-.887,2.851-.115,1.177,1.074,2.181,3.251.97.489-.273.667-1.375,1.066-1.929.505-.709.185-.962,1.151-.948.528.006,1.1.71,1.7,1.314a.431.431,0,0,1-.117.7c-.678.315.493,1.838.275,2.306-.172.374.157,1.341-.009,1.8-.159.443-1.021.183-1.211.587-.36.762-2.767,3.183.21,3.708a1.4,1.4,0,0,0,1.233-.469.43.43,0,0,1,.653.551c-.954,1.477-1.928,3.122-1.748,3.6.537,1.393,2.282-.477,3.086,1.664a.438.438,0,0,1-.4.579c-1.168.078-2.308,1.215-2.953,2.569h0a3.521,3.521,0,0,0,.14-.629c-.083-2.091-.021-1.941-.731-1.8a.712.712,0,0,1-.766-1.013c.728-1.52,1.507-2.886.081-4.423-.019-.021-2.584-.82-3.222-1.032a.656.656,0,0,0-.31-.03c-.885.146-4.857.01-5.1.069-.942.226-4.164,2.724-3.833,3.543.717,1.768,3.755.508,5.05.86,3.295.9,1.139,1.018,2.01,3.614a45.854,45.854,0,0,0,4.2,5.348.7.7,0,0,0,1.191-.279c.218-.7.52-1.654.792-2.53v.013a2.448,2.448,0,0,0,2.347,3.007c2.337.239,4.39-.385,6.825.068,1.933.358,6.639-.073,6.251,1.227a8.452,8.452,0,0,0-1.268,2.3c-.279.776-2.2.268-2.266,1.256-.012.2,2.081,2.255,1.873,2.871-.347,1.023-2.832-.638-3.793-.966a.407.407,0,0,0-.34.048,6.461,6.461,0,0,1-.819.429,2.021,2.021,0,0,1-2.214-.371,8.845,8.845,0,0,1-.627-.667.431.431,0,0,0-.324-.153c-4.686-.08-6.615,1.163-7.694,6.082-.4,1.809-.323,6.655-2.9,7.181-1.044.212-2.4-2.527-3.687-1.7-2.049,1.312,3.629,5.248,1.337,5.3-.363.009-6.875-2.156-7.127-2.281a1.972,1.972,0,0,0-2.85,2.17c.66,2.654,5.635,3.249,6.317,5.038-.469.128-4.748,1.541-4.875,1.849-.223.543-3.564,3.086-.273,3.986.1.028,2.326,0,2.956-.08a.419.419,0,0,1,.391.162c.434.584.284,1.761.96,2.207,1.261.829,3.523,2.145,4.871.942.263-.236,1.06-5.236,2.151-2.755.348.8-2.536.91-1.167,2.444.94,1.054,4.354-1.882,4.157-.03s-6.282,1.274-4.383,5.554c.334.756,1.883,1.707,2.221,1.981a5.053,5.053,0,0,0,3.163.5c1.166-.266,5.82-5.96,5.887-5.952,1.321.955-2.175,1.736-.607,3,.965.774,2.561-1.6,3.645-.859.528.6-2.542,4.831-2.522,5.514a.464.464,0,0,1-.028.2c-.371.952-.928,3.332.289,3.781,1.293.482,1.287-.892,1.664-1.859a.431.431,0,0,1,.789-.039c1.693,3.487,3.469,2.37,7.086,2.32,4.348-.063,8.762,1.072,13.031.935,1.4-.046,2.336-1.107,3.278-.141.917.944-.8,1.861-.61,2.278.882,1.919,1.388,1.242,2.738,1.986.187-.608-.137,3.106-.207,3.125-.6.177-.98-2.034-1.574-2.2a9.157,9.157,0,0,0-3.654.427c-2.033,1.072-1.161,1.409-.875,2.3a.438.438,0,0,1-.369.566c-.658.07-1.313.128-1.976.178a.435.435,0,0,1-.4-.218,9.689,9.689,0,0,0-1.143-1.592.457.457,0,0,0-.139-.108c-1.89-.93-4.115-1.482-5.907-.254a21.8,21.8,0,0,0-1.729,2.548c-1.1,1.417-2.825,2.7-3.809,4.372a15.665,15.665,0,0,1-2.215,2.989c-1.033,1.169.048-.137-1.1,1.8-1.99,3.355.224,2.818,3.379,2.459a.433.433,0,0,1,.394.687c-.879,1.14-2.481,1.6-3.3,2.91a48.442,48.442,0,0,1-3.356,5.218c-.65.823-.667,2.123-1.529,2.751-1.276.933-3.119.108-4.483.908-1.249.733-2.053,2.291-3.133,3.216-.681.577-2.59,1.548-3.409,2.113-1.407.962-2.712,2.477-4.117,3.288s-2.856.513-4.127,1.781c-4.1,4.1,1.438,2.367,3.721,1.683,1.238-.372,2.99-.031,4.013-.369,1.326-.438,4.9-2.029,5.735-2.314a8.584,8.584,0,0,0,2.237-2.27.443.443,0,0,1,.331-.244.982.982,0,0,1,.761.1c1.245,1.058-1.092,3.842.215,4.883.936.747.859-1.651,1.243-1.733.355-.074,3.379,1.877,4.515,1.871.459-.006,5.114-1.674,5.352-.782.307,1.147-4.685,1.307-3.949,3.523.9,2.7,4.459-1.113,5.44-1.4,1.768-.509,2.858.208,4.474-.936,1.441-1.018,1.738-3.137,2.993-4.264,1.121-1.008,2.982-.745,3.758-2.231.317-.6-3.141-.484-.7-2.62,2.228-1.948,3.455.151,3.487,2.221.016,1.292-1.662,1.47-1.038,2.809.439.94,1.554-.184,2.088.018,1.19.45,4.949.549,7.049,1.289a.439.439,0,0,1-.112.847,33.721,33.721,0,0,1-3.505.417c-.945-.023-1.8-.9-2.865-.83-2.412.155-3.769,1.744-5.619,2.344-.464.148-1.359-.024-1.993.256-1.194.532-.954,1.242-1.621,1.558-1.682.794-9.223,2.283-10.568,1.973-1.28-.293-2.2-2.153-3.4-2.258a13.035,13.035,0,0,0-2.058.368.41.41,0,0,0-.338.231c-.378.748-1.284.088-1.3.07a3.674,3.674,0,0,0-2.018-1.029c-.027,0-4.634-1.535-6.308.411a4.22,4.22,0,0,0-.744,3.935.419.419,0,0,1-.4.589c-1.911-.1-3.808,1.541-5.787,1.611-1.112.041-4.89-1.867-5.656-.938-1.63,1.983,1.675,2.486,2.533,3.594,1.425,1.84.754,3.585.253,5.955a.426.426,0,0,1-.617.3c-.452-.252-.627-.866-1.057.083-.231.511.516,1.3.359,1.563-.922,1.5.243,1.459-1.692,2.135-.715.251-3.5-.116-4.137-.787-1.365-1.431.242-6.642-3.273-4.45,0,0-.009.007-.009.011-.7.57-1.586,3.231-1.153,2.867a6.249,6.249,0,0,1-2.986,1.322.434.434,0,0,1-.475-.637c1.853-3.37-2.186-3.533-4.638-2.69a20.551,20.551,0,0,0-4.179,1.987c-.569.574-.263,3.162-1.123,2.954-.906-.218.554-2.038-1.733-1.76-2.993.361-1.65,1.984-2.032,3.369-.8,2.92-1.068,4.932,3.055,4.44,1.846-.218.922-1.337,1.714-1.675-.6.337,5.608,1.921,5.5,1.908,2.422.507,3.442,1.248,6.124,1.128,1.229-.055,2.031-.717,3.315-.32.914.283,1.774,2.8,2.968,2.634,2.416-.334-.068-1.119.572-2.33.373-.7,4.131-.388,5.689-.3a.433.433,0,0,1,.356.627c-1.145,2.3-3.087.725-3.833,1.008a3.738,3.738,0,0,0-1.249.466c-.533.332-1.7,2.931-1.889,3.47-.78-1.565.986-1.581-1.014-1.736-.222-.014-2.511,2.326-3.209,2.467-1.276.257-2.863-.575-4.238-.429-2.12.217-7.293,2.226-8.506,3.836a9.562,9.562,0,0,0-1.109,1.722c-.1.187,1.4.486,1.236.766-.826,1.4-1.709-.34-3.464-.207-1.382.1-3.112.8-3.332,2.567-.085.656,3.22,4.221,3.3,4.532.187.783-1.086,1.828-.837,2.248,2.323,3.86,6.162-4.084,6.621.9.084.906-2,.654-1.362,2,.6,1.29,2.4.581,3.107,1.344,1.279,1.385-.248,2.153,1.993,2.324,1.52.115,5.071-1.846,6.749-2.23,2.45-.557.638-1.2,2.456-.807.971.209-.95,1.816.035,2.039,1.711.384,6.848-5.047,9.425-4.613a.435.435,0,0,1,.037.844c-2.2.614-5.867,3.374-5.935,5.277a.435.435,0,0,1-.7.353,1.917,1.917,0,0,0-1.209-.588c-.382,0-.558.412-.8.722a.435.435,0,0,1-.729-.1c-.576-1.167-2.633.073-3.62.822-.407.306-1.54,1.177-1.637,1.253-.4.32.934.974.133,1.417-1.46.8-4.277-.441-5.277.512-1.349,1.284.973,2.643.08,4.04-.449.707-4.92.864-3.816,3.267.723,1.578,1.279-.347,2.41-.378,2.162-.065,3.625.326,5.78-.529.839-.331,2.146-1.492,3.273-2.029a.431.431,0,0,1,.558.6c-.809,1.43.171,1.665,1.785,1.516,2.359-.217,3.756-3.028,5.825-3.59,2.3-.626,3.823.91,6.5-.253.974-.428,3.262-3.158,3.687-3.215.8-.109,2.035,2.476,1.968,3.217-.157,1.678-1.6,2.006-2.932,2.726-3.269,1.763-6.923,1.581-10.2,3.455-3.164,1.815-6.048,4.061-1.021,4.085,1.95.01,3.991-.929,5.934-1.8a.432.432,0,0,1,.421.75,14.4,14.4,0,0,1-5.024,2.4c-1.653.479-3.947.549-4.992,2.357a11.66,11.66,0,0,0-.548,3.83c1.293,1.641,1.571.149,2.412-.262a.423.423,0,0,1,.531.158c.8,1.229,1.121,1.744,3.022-.267,1.691-1.793.454-2.316,3.086-2.82a47.141,47.141,0,0,0,4.928-.768c.268-.076,2.934-.81,4.381-1.294a.362.362,0,0,1,.35.615c-.508.462-1.054.967-.571,1.406,1.434,1.315,3.124-1.581,4.006-.581,1.125,1.271-1.183,1.629-2.076,1.536a.441.441,0,0,0-.474.343c-.21.947-.395,2.825-.095,3.123,1.885,1.881,3.478-1.476,5.232-2.035,1.083-.342,1.723.788,3.241.205,1.259-.481.617-1.93,1.4-2.587.2-.168,1.086,1.031,1.741.574.55-.381.606-.653.529-.941a.428.428,0,0,1,.757-.381,1.689,1.689,0,0,0,1.343.938c.944.071,1.93-1.379,2.151-1.357,1.283.127.432.863,1.423,1.406.629.34,2.737,2.065,3.043,2.069,1.92.03,3.346-2.319,3.613-4.223a.428.428,0,0,1,.732-.233c1.184,1.246,2.713,3.759,4.489,3.525,4.348-.573,1.937-5.447,3.432-6.343-.544.422,2.359,1.511,2.8,1.618a.351.351,0,0,1,.155.074c.672.517,2.635,2.384,3.24,2.522,1.884.44,1.474-3.367.7-4.859a.439.439,0,0,1,.292-.615c2.324-.572.173-1.274.92-2.484.369-.6,1.225,1.88,1.739,1.916,1.136.085,1.152-.351,1.05-.872a.428.428,0,0,1,.761-.349c.04.064.081.125.121.189a.458.458,0,0,0,.5.186,24.9,24.9,0,0,0,2.392-.87.226.226,0,0,1,.033-.012,6.869,6.869,0,0,0,3.528-2.1.411.411,0,0,0,.092-.244c.034-.462.326-2.136.326-2.132.087-.985.639-2.223-.237-3.213a.414.414,0,0,1,.094-.6c.313-.254-.885-1.211-.023-1.3.674.437,1.013,1.648,1.5,1.521a.428.428,0,0,1,.486.476c-.257,4.023,3.852,4.911,7.538,3.289,2.65-1.167,4.674-3.382,7.4-4.285,3.045-1.008,4.855-.039,2.345-2.747a.44.44,0,0,1,.175-.708,3.574,3.574,0,0,0,2.435-3.346.428.428,0,0,1,.8-.185c.686,1.244.151,2.853,2.575,3.273,1.552.274,4.668-1.268,6-1.96.759-.4,4.776-2.9,5.04-3.893.586-2.185-1.39-1.6-2.028-2.233a.433.433,0,0,1,.195-.71c1.592-.47,7.8-3.58,8.657-3.774,1.117-.252,10.862,1.469,12.844.049a.43.43,0,0,1,.663.492,1.547,1.547,0,0,0,.048,1.634.416.416,0,0,0,.352.153c.682-.044,3.078-.1,3.321-.2a9.189,9.189,0,0,0,3.3-3.093c.572-.937-1.095-1.53-.5-2.3.178-.23,1.591.39,1.655.525.535,1.17.047,1.4-.229,2.9-.145.8-2.356,3.152-.189,3a.4.4,0,0,0,.294-.16,46.025,46.025,0,0,1,3.785-3.244.412.412,0,0,0,.113-.118c.676-1.075.42-2.933,1.2-3.977a.431.431,0,0,1,.765.364c-.445,1.656,2.422,1.152,4.741,1.237a.432.432,0,0,1,.218.787.307.307,0,0,0-.134.195c-.07.5,3.731,2.444,4.225,2.546,1.722.357,3.8-.426,5.535-1.258a.43.43,0,0,1,.622.336c.081,1.279,3.529,1.246,4.565-.628.243-.441,1.712-5.393-.2-7.633-.181-.216-.343-.431-.6-.317-1.178.531-4.306,1.163-1.759-1.27.731-.694,1.863.275,2.363-.252,1.058-1.11.776-1.593,1.371-3.2.733-1.973,6.319-6.821,6.654-7.363a30.5,30.5,0,0,0,1.463-5.18c.461-3.418-1.964-4.71.505-8.136.847-1.179,2.23-1.773,2.959-3.057.663-1.177.527-2.559,1.091-3.775.979-2.1,2.889-3.2,3.917-5.279.823-1.655.7-3.657,1.426-5.268a.354.354,0,0,1,.62-.054.025.025,0,0,1,.006.012.357.357,0,0,0,.481.108c1.478-.885-1.785-5.421-1.855-5.708-.81-3.313,1.856-6.52,1.426-10.019-.232-1.859-.418-7.941-.623-9.455a12.414,12.414,0,0,0-2.745-4.945.433.433,0,0,1,.276-.724c2.534-.217,8.637-1.014,6.834-3.268-.291-.365-1.793-.087-2.665-1.244-.93-1.236-.878-5.045-1.094-6.46-.714-4.707-4.219-16.411-3.92-18.184.162-.941,1.161-.358,1.182-2.912,0-.17-.654-2.637-.675-2.157-.782-.259-.964-.643-.543-1.143a3.6,3.6,0,0,1,.886-1.306.457.457,0,0,0,.14-.274c.233-2.059,1.41-.854-.084-2.849-.734-.978-2.97-.281-3.917-1.407a5.118,5.118,0,0,1-.654-4.131c1.386-5.4,4.135-2.386,7.235-1.528,1.278.349,7.036.279,7.9-.328.156-.1.415.029.863-.329.049-.038.818-1.875,1.317-2.94a15.716,15.716,0,0,1-3.116-1.205C1274.229,5371.41,1272.286,5368.08,1270.053,5367.554Zm-45.78-76.3a11.844,11.844,0,0,0,2.793-2.089c.647-1.167.344-2.186.361-3.311a.362.362,0,0,1,.674-.18c.616,1.06,1.415,1.612.322,3.7-.287.543-4.053,2.646-1.446,3.434a.364.364,0,0,1,.089.663c-.492.293-1.141.671-1.819,1.053a.361.361,0,0,1-.459-.54,1.438,1.438,0,0,0,.356-.659c.2-1.263-.126-1.472-.631-1.4A.362.362,0,0,1,1224.273,5291.252Z" fill="#ebebeb"/>
      <path id="Path_48" data-name="Path 48" d="M1354.573,5360.534c-.523-1.026-2.013-.583-2.764-1.776-1.292-2.054,1.88-5.325.987-6.317-.779-.866-4.51.16-7.106,2.763-3.446,3.455-2.779,7.566-6.12,8.883-1.357.535-2.147.125-2.961.987-1.268,1.346-.049,3.093-.789,5.725-.914,3.248-3.76,4.1-3.356,5.132.464,1.182,4.661,1.18,8.291-.2,2.931-1.113,5.086-3.389,9.277-7.9C1354.519,5363.013,1355.031,5361.433,1354.573,5360.534Z" fill="#ebebeb"/>
      <path id="Path_49" data-name="Path 49" d="M1108.811,5350.145c.732.086.82-.966.966-2.207s.293-2.2-.438-2.289-1.443.851-1.589,2.093S1108.079,5350.059,1108.811,5350.145Z" fill="#ebebeb"/>
    </g>
    <g id="Group_73" data-name="Group 73">
      <path id="Path_50" data-name="Path 50" d="M1407.8,5449.626c-.225.635-2.157.293-2.632,1.316s.954,2.491,2.237,4.079c4.688,5.8,3.636,8.6,6.843,10,1.993.869,2.3-.255,5.659.789,2.945.917,3.408,2,5.4,1.974a6.5,6.5,0,0,0,5-2.5c1.618-2.246.577-4.74,2.106-5.527.811-.418,1.169.251,2.632,0a5.99,5.99,0,0,0,4.079-3.027c.808-1.535.367-2.576,1.185-3.027.79-.436,1.452.4,3.026.527,1.872.151,4.113-.774,4.738-2.237.493-1.157-.337-1.912-.79-3.948-.36-1.622-.1-2.362.79-7.5,1.253-7.2,1.005-7.2,1.579-8.028,1.906-2.745,4.838-3.022,4.869-5.132a4.392,4.392,0,0,0-1.053-2.5c-1.033-1.369-1.832-1.09-2.632-2.1-1.494-1.9.038-4.478-1.184-5.264-.752-.484-1.424.432-2.764.131-1.922-.43-3.591-3-3.026-4.474.538-1.407,2.75-.87,3.553-2.5.728-1.478-.723-2.662,0-4.08.844-1.655,3.3-.981,3.816-2.237.57-1.4-2.354-2.521-5.264-7.238-1.352-2.191-1.686-3.514-3.29-4.211-1.369-.6-2.635-.288-3.158-1.184-.575-.986.537-2.077,0-2.764-.779-1-3.6.691-4.606-.4-.5-.542.024-1.155-.132-2.368-.4-3.1-4.475-4.019-4.211-5.922.094-.677.614-.588,1.974-2.106,1.946-2.171,1.5-3.04,2.632-3.816,2.3-1.573,5.706.929,6.712-.4.5-.654-.329-1.27,0-2.9.417-2.066,2.043-2.522,1.842-3.685-.246-1.426-2.874-1.793-2.763-2.5.1-.665,2.4-.168,3.421-1.448,1.216-1.53-.651-4.035.4-5,.992-.915,2.983,1.055,4.869.132,1.585-.776,2.386-3.246,1.842-5-.309-1-.838-1.072-2.632-2.9-2.241-2.279-3.661-3.722-3.553-5.4.1-1.5,1.351-2.2.921-3.027-.457-.884-2.05-.416-2.5-1.316-.314-.63.252-1.285.921-2.9a12.783,12.783,0,0,0,1.053-3.685c.178-2.606-1.579-5.456-2.9-5.4-.882.04-.868,1.356-2.237,1.974-1.859.838-4.684-.324-5-1.711-.209-.915.825-1.26.79-2.632-.039-1.49-1.28-1.905-1.053-2.9.284-1.241,2.388-1.274,2.5-2.369.065-.63-.611-.819-1.184-1.842-.7-1.256-.975-3.269-.132-4.343,1.016-1.295,2.86-.217,4.211-1.579a3.825,3.825,0,0,0,.79-3.685c-.744-2.237-3.617-2.167-6.054-3.948a8.762,8.762,0,0,1-2.673-3.3,27.623,27.623,0,0,0-3.281,1.653c-5.1,3.088-5.56,6.319-8.785,6.317-1.746,0-2.51-.95-3.75-.395-1.4.629-1.962,2.534-2.195,4.276.384-.414.555-.684.634-.631.607.408-.986,5.015-3.019,5.159-1.136.08-1.422-1.3-3.208-1.7-1.59-.353-3.66.231-4.341,1.51-.8,1.5.763,3.106,0,3.963-.829.931-2.8-.807-4.53,0-2.036.952-.937,4.138-3.208,7.738-1.8,2.86-3.23,1.669-5.095,4.718-1.911,3.124-1.045,4.984-3.4,9.059-1.485,2.572-2.377,2.778-2.265,4.026.246,2.743,4.679,3.094,5.284,6.417.355,1.948-.919,3.2,0,4.4.858,1.123,2.319.491,3.02,1.51.866,1.26-.941,2.846-1.007,5.536-.069,2.826,1.8,6.031,3.775,6.291,1.169.154,2.376-.729,3.364-1.755a14.025,14.025,0,0,1,2.085-2.671c.051-.071.081-.109.087-.1s-.027.042-.087.1a20.714,20.714,0,0,1-2.085,2.671,9.888,9.888,0,0,0-1.1,2.636c-.669,2.706-.194,6.458,2.013,7.674a2.383,2.383,0,0,0,1.259.378c3.494-.089,5.789-9.752,6.416-9.562.363.109-.857,3.2.5,4.529,1.025,1,3.006.507,3.522.378,4.031-1.01,6.2-5.434,6.417-5.285a14.661,14.661,0,0,0-1.636,3.4c-.819,3.407,1.481,5.639.252,7.172-.719.9-1.62.275-2.894,1.258-2.121,1.637-2.3,5.424-1.51,5.788.764.353,2.364-2.559,2.894-2.265.63.349-.225,5.239-3.145,6.542-2.212.988-4.565-.549-5.033.252-.613,1.05,3.241,4.023,2.642,4.907-.244.361-1.138.234-1.761,0-2.634-.992-2.555-4.72-3.649-4.781-1.353-.076-4.113,5.488-2.39,10.443a8.671,8.671,0,0,0,3.523,4.655c3.637,2.211,8.007.424,8.178,1.006.3,1.044-14.6,3.9-15.6,10.317-.07.451.875,2.7,2.768,7.172,2.14,5.056,3.172,7.413,5.536,9.562,2.411,2.191,3.789,1.97,4.152,1.887,1.129-.258,1.7-1.259,2.265-1.006.6.271.828,1.823.252,2.768-1.053,1.725-5.186,2.09-7.927.5-4.65-2.694-2.949-9.652-6.542-10.82-2.306-.75-5.736,1.228-6.291,3.522-.952,3.931,6.577,8.612,5.662,9.908a.5.5,0,0,1-.208.163C1406.123,5447.3,1408.052,5448.924,1407.8,5449.626Z" fill="#ebebeb"/>
      <path id="Path_51" data-name="Path 51" d="M1455.7,5358.3c1.1.119,1.109.692,2.5,1.053,1.153.3,3.224.443,4.211-.658.959-1.071.3-2.661.921-2.9.818-.311,2.014,2.446,3.29,2.237,1.232-.2.962-2.911,2.5-3.553,1.669-.7,4.2,1.566,5.4,2.632,2.811,2.51,3.061,4.4,4.869,4.6,1.288.148,1.421-.78,3.422-1.052,2.353-.32,3.177.827,5.263.789,2.562-.046,2.955-1.8,5.264-2.5,5.032-1.519,9.171,5.007,12.634,3.553.82-.344,1.694-1.18,2.3-3.158-2.1-1.216-4.24-2.385-6.261-3.736-3.014-2.014-4.057-2.989-5.945-3.019-3.229-.052-5.828,2.712-5.944,2.548a15.708,15.708,0,0,0,3.4-3.586,8.566,8.566,0,0,0,1.226-4.907c-.309-2.828-2.57-3.767-4.435-6.134-3.167-4.02-.756-6.535-3.019-17.079-1.118-5.21-2.831-10.38-2.831-10.38-1.586-4.786-2.629-6.7-1.982-9.625.509-2.3,1.589-3.072,1.321-5.19-.324-2.564-2.076-2.788-2.264-5.1-.208-2.541,1.856-3.019,2.076-6.227.068-1-.364-2.427-1.227-5.285-1.243-4.115-2-4.729-2.642-4.907-.929-.258-1.677.38-2.171-.094-.612-.588.305-1.791-.283-2.548-.7-.9-2.512.138-3.4-.755-.725-.732.124-1.805-.189-3.3-.49-2.354-3.12-2.251-5.284-4.907-.955-1.172-.643-1.44-2-5.435a30.256,30.256,0,0,1-4.922,5.176c-1.9,1.562-6.58,5-6.58,5-1.422.031-3.078.265-3.52,1.25-.467,1.041.712,2.267,2.368,4.935,2.493,4.017,3.74,6.026,3.159,7.5-.977,2.482-5.882,1.2-7.7,4.442-1.091,1.948-.03,3.677-1.184,4.441-1.483.982-3.391-1.77-6.415-1.283-2.608.42-4.647,3.024-5.429,5.132-.734,1.982-.01,2.587-.789,4.146a4.6,4.6,0,0,1-2.641,2.2,8.762,8.762,0,0,0,2.673,3.3c2.437,1.781,5.31,1.711,6.054,3.948a3.825,3.825,0,0,1-.79,3.685c-1.351,1.362-3.195.284-4.211,1.579-.843,1.074-.572,3.087.132,4.343.573,1.023,1.249,1.212,1.184,1.842-.112,1.1-2.216,1.128-2.5,2.369-.227.99,1.014,1.4,1.053,2.9.035,1.372-1,1.717-.79,2.632.317,1.387,3.142,2.549,5,1.711,1.369-.618,1.355-1.934,2.237-1.974,1.316-.061,3.073,2.789,2.9,5.4a12.783,12.783,0,0,1-1.053,3.685c-.669,1.61-1.235,2.265-.921,2.9.45.9,2.043.432,2.5,1.316.43.83-.824,1.531-.921,3.027-.108,1.673,1.312,3.116,3.553,5.4,1.794,1.823,2.323,1.9,2.632,2.9a4.522,4.522,0,0,1-1.755,4.951,3.061,3.061,0,0,0,2.15.971C1453.269,5359.441,1453.983,5358.111,1455.7,5358.3Z" fill="#ebebeb"/>
      <path id="Path_52" data-name="Path 52" d="M1456.89,5428.307c.6.949.256,2.249,1.447,3.553.6.661.8.442,1.316,1.053,1.189,1.4.284,2.673,1.316,4.079.807,1.1,1.567.6,2.238,1.711.782,1.291-.072,2.264.789,3.29.667.795,1.528.625,1.843,1.448.26.68-.23,1.055,0,1.579.377.861,2.254,1.1,3.816.789,2.631-.53,3.248-2.417,4.737-2.237,1.252.152,1.073,1.78,2.764,3.159,1.259,1.026,3.6,2.019,5.4,1.316,2.727-1.065,1.751-5.056,5.133-7.107,1.762-1.068,2.4-.212,3.948-1.447,2.235-1.788,2.049-4.506,3.684-4.738a2.02,2.02,0,0,1,1.843.79c.376.576,0,1.021.263,1.579.5,1.085,2.852,1.43,4.606.79,1.64-.6,1.284-1.986,2.9-2.764s3.822-.464,4.343.526c.4.756-.436,1.439,0,2.106.35.536,1.019.293,3.816.526,1.376.115,1.872.229,2.237-.131.545-.537.007-1.344.527-1.974.737-.893,2.574-.186,2.763-.658.234-.584-2.553-1.709-2.369-2.632.163-.813,2.635-1.5,4.606-.79,1.075.385,1.391.964,1.974.79,1.209-.36,1.028-3.2,1.843-3.29.453-.052.565.817,1.579,1.711,1.429,1.26,2.748.89,3.027,1.71.245.722-.726,1.152-1.448,2.9a5.317,5.317,0,0,0-.4,3.816c.593,1.6,2.471,2.929,3.553,2.5s.567-2.288,1.843-4.342a6.552,6.552,0,0,1,1.612-1.748c-3.659-3.24-5.556-4.968-6.47-6.477-1.627-2.683-1.84-4.7-3.869-5.473-.808-.309-1.054-.1-3.3,0-4.484.193-6.794.293-9.058-.849-1.212-.612-2.061-1.4-2.926-1.038-.912.384-.8,1.614-1.6,1.887-1.158.391-3.374-1.468-3.114-2.642.288-1.3,3.69-2.162,6.417-1.321,1.763.543,1.621,1.3,3.3,1.792,2.031.6,3.1-.25,7.078-.849,2.57-.387,3.856-.581,4.529-.377,4.182,1.263,3.983,8.127,7.738,8.775,1.243.215,1.629-.475,3.491-.094.5.1,2.951.6,3.869,2.454.619,1.247.185,2.39.472,2.453.37.081,1.472-1.735,1.415-3.68-.061-2.088-1.434-3.522-2.264-4.53-2.762-3.351-1.442-4.321-4.719-11.04-3.178-6.517-4.682-6.142-5.473-10.1-.8-3.993-.108-8.6,1.888-9.342,1.332-.5,2.9.859,3.869,0a2.147,2.147,0,0,0,.471-2.076c-.743-2.65-6.29-2.036-7.171-4.812-.341-1.075.443-1.317.189-2.642-.5-2.621-3.7-2.321-5.662-5.19-2.13-3.108-.126-6-2.642-8.115-.73-.613-1.637-.99-1.982-2.076-.371-1.168.31-1.887.377-2.831.143-2.006-2.588-3.552-9.341-7.644q-.828-.5-1.666-.982c-.6,1.978-1.479,2.814-2.3,3.158-3.463,1.454-7.6-5.072-12.634-3.553-2.309.7-2.7,2.454-5.264,2.5-2.086.038-2.91-1.109-5.263-.789-2,.272-2.134,1.2-3.422,1.052-1.808-.207-2.058-2.095-4.869-4.6-1.193-1.066-3.727-3.329-5.4-2.632-1.538.642-1.268,3.351-2.5,3.553-1.276.209-2.472-2.548-3.29-2.237-.619.234.038,1.824-.921,2.9-.987,1.1-3.058.956-4.211.658-1.392-.361-1.4-.934-2.5-1.053-1.722-.186-2.436,1.144-3.816,1.184a3.061,3.061,0,0,1-2.15-.971c-.029.016-.057.035-.087.05-1.886.923-3.877-1.047-4.869-.132-1.046.966.821,3.471-.4,5-1.016,1.28-3.317.783-3.421,1.448-.111.707,2.517,1.074,2.763,2.5.2,1.163-1.425,1.619-1.842,3.685-.329,1.625.5,2.241,0,2.9-1.006,1.324-4.412-1.178-6.712.4-1.134.776-.686,1.645-2.632,3.816-1.36,1.518-1.88,1.429-1.974,2.106-.264,1.9,3.812,2.819,4.211,5.922.156,1.213-.37,1.826.132,2.368,1.005,1.086,3.827-.6,4.606.4.537.687-.575,1.778,0,2.764.523.9,1.789.589,3.158,1.184,1.6.7,1.938,2.02,3.29,4.211,2.91,4.717,5.834,5.841,5.264,7.238-.512,1.256-2.972.582-3.816,2.237-.723,1.418.728,2.6,0,4.08-.8,1.63-3.015,1.093-3.553,2.5-.565,1.474,1.1,4.044,3.026,4.474,1.34.3,2.012-.615,2.764-.131,1.222.786-.31,3.365,1.184,5.264.8,1.015,1.6.736,2.632,2.1a4.782,4.782,0,0,1,1.033,2.207A3.106,3.106,0,0,1,1456.89,5428.307Z" fill="#ebebeb"/>
      <g id="Group_70" data-name="Group 70">
        <path id="Path_53" data-name="Path 53" d="M1347.732,5425.018c-.2-.528-.851-.858-4.011-1.227-5.771-.673-6.839.051-7.313.472a5.216,5.216,0,0,0-1.179,1.651c-.667,1.552-.066,2.529-.85,3.35a2.155,2.155,0,0,1-1.84.614c-.868-.157-1.039-.927-1.557-.85-.723.108-1.422,1.764-.9,2.737.306.566.76.407,1.321,1.038.935,1.051.606,2.536.991,2.595.329.05.429-1.065,1.085-1.274.892-.284,2.563,1.189,3.208,3.019.712,2.018-.281,3.168.566,4.058,1.066,1.12,3.34.039,3.822.944.431.808-1.165,2.085-.8,2.6.392.55,2.822-.141,4.86-1.6,1.869-1.343,1.6-2.039,3.538-3.539s2.62-1.118,4.482-2.642c1.715-1.4,3.1-3.339,2.737-3.822-.23-.3-1.254,0-3.3.613-1.708.509-2.008.73-2.359.519-.906-.544.295-2.5-.8-4.246-.8-1.27-1.977-1.1-2.265-2.217C1346.859,5426.611,1348.06,5425.9,1347.732,5425.018Z" fill="#ebebeb"/>
        <path id="Path_54" data-name="Path 54" d="M1409.251,5550.232c-.755-1.03-1.886-.251-3.75-1.184-3.833-1.919-3.323-7.35-5.922-7.9-1.842-.387-2.67,2.221-4.54,1.974-3-.4-4.772-7.6-4.54-13.028.128-3,.284-6.659,2.763-8.488,1.439-1.062,3.272-1.222,3.751-2.764.383-1.233-.566-1.847-.2-3.158.558-1.983,3.174-2.159,3.159-3.158-.018-1.219-3.906-1.11-7.3-3.751-2.65-2.06-4.675-5.538-3.75-7.106.537-.911,2.2-1.134,5.527-1.579,2.387-.32,3.035-.152,3.75-.79,1.378-1.231,1.671-4.273.2-5.33a3.133,3.133,0,0,0-2.86-.1,12.166,12.166,0,0,1-2.075,1.676,3.94,3.94,0,0,1,1.394-1.352,4.542,4.542,0,0,1,.681-.324c2.2-2.063,5.37-5.808,5.426-9.97a6.543,6.543,0,0,0-.987-3.948c-1.823-2.638-5-1.893-5.725-3.75-.848-2.184,2.678-5.453,4.343-6.712,1.441-1.089,4.109-3.107,6.712-2.369,2.8.794,3.1,4.082,4.737,4.146,1,.038,2.4-1.125,4.223-6.246l-.012,0c-3.207-1.4-2.155-4.2-6.843-10-1.283-1.588-2.714-3.052-2.237-4.079s2.407-.681,2.632-1.316c.248-.7-1.681-2.33-8.475-5.809a3.468,3.468,0,0,1-1.868-.163c-4.31-1.336-3.961-6.825-7.644-8.4-1.962-.837-2.276.628-8.115,1.227-4.94.506-8.076.828-10.568-1.038-2.038-1.525-2.872-3.933-4.719-3.775a1.919,1.919,0,0,0-1.415.755c-.659,1.135,1.189,2.487.944,3.68-.422,2.053-5.878,2.494-13.07,4.624-3.946,1.169-7.407,3.633-10.71,7.125-2.119,2.239-.284,2.849-1.6,5.237-1.718,3.108-5.388,3.5-11.1,6.2-6,2.833-10.956,6.789-10.128,8.524.452.951,2.81,1.224,4.435.566,1.674-.677,2.283-2.226,3.019-1.981.719.239.24,1.749,1.321,2.925a3.154,3.154,0,0,0,3.492.849c1.108-.648.5-2.188,1.226-3.869,1.7-3.918,8.8-4.249,10.758-4.34,1.31-.061,6.841-.319,7.454,1.6s-4.372,3.662-4.246,7.36c.088,2.59,2.632,4.656,2.831,4.813,1.972,1.561,3.7,1.243,3.869,2.076.365,1.786-7.478,3.7-7.361,6.6.039.962,1.159,2.057,3.4,4.246,1.407,1.377,2.354,2.032,2.17,2.548-.225.629-1.8.12-3.114.661-2.484,1.022-1.952,4.939-3.492,9.719-1.844,5.728-6.306,11.6-10.474,11.607-1.069,0-1.182-.382-2.359-.284-3.216.27-4.089,3.287-6.983,5-3.436,2.036-4.842-.658-10,.755-5.7,1.56-6.063,5.417-10.474,5.378-3.386-.03-5.347-2.321-7.077-1.132-1.365.937-.385,2.527-1.7,4.152-2.26,2.794-6.884.227-10.1,3.3-.885.847-1.975,2.422-1.51,3.4.974,2.036,8.163-.745,9.154,1.792.532,1.363-.276,3.268-1.321,4.436-2.086,2.327-4.839,1.409-5.568,3.113-.743,1.739,1.239,4.76,2.737,4.719,1.437-.04,1.916-2.885,3.4-2.831,1.121.041,1.21,1.685,2.642,2.076.372.1,1.311.248,4.812-2.171,2.877-1.987,3.412-2.893,4.058-2.642,1.2.467,1.614,4.479-.094,5.851-1.4,1.126-3.114-.427-6.606.471-1.167.3-3.185.82-3.68,2.265-.7,2.049,1.915,5.193,4.152,5.19,1.048,0,1.3-.693,2.642-1.321,3.11-1.455,4.939.767,7.738,0,3.816-1.046,3.2-5.942,6.888-6.794,2.828-.654,5.138,1.781,6.889.377.956-.767.656-1.806,1.887-2.547.917-.553,2.551-.86,3.491.094a2.574,2.574,0,0,1,.378,2.831c-.349.685-.8.609-1.132,1.227a3.2,3.2,0,0,0,.943,3.585c.937.753,1.8.295,4.152.378.83.029,5.553.195,6.039,1.887a2.491,2.491,0,0,1-1.7,2.548c-1.747.575-3-1.7-4.624-1.321-1.887.44-4.82,6.921-2.359,6.511,10.191-1.7,12.8,2.934,14.154-.378.394-.962-.122-1.844.566-2.547,1.028-1.05,3.677-.622,5.379.566,2.566,1.79,2.022,4.64,3.492,8.4,2.289,5.853,7.49,8.866,8.964,9.719,6.536,3.786,15.2,3.788,16.608,1.038.632-1.234-.149-3.118.849-3.68.742-.418,1.393.5,2.548.283,1.754-.33,7.29-5.23,8.209-4.246,1.33,1.422,6.134-1.072,6.606-1.321,3.332-1.76,6.516-3.672,9.362-5.488a25.4,25.4,0,0,1,1.012-7.119C1408.349,5554.406,1410.405,5551.8,1409.251,5550.232Z" fill="#ebebeb"/>
      </g>
      <path id="Path_55" data-name="Path 55" d="M1418.134,5545.89c.44-1.353-1.5-2.112-1.579-4.738-.06-1.935.915-4.023,1.974-4.145.995-.115,1.478,1.57,2.961,1.579,1.007.006,1.321-.767,1.974-.592,1.149.308.52,2.8,1.777,3.948,1.384,1.266,4.338.25,9.475-1.58,4.379-1.559,5.089-2.266,6.909-1.974,2.957.476,4.93,2.96,5.329,2.567.372-.367-1.751-2.121-1.382-4.146a3.815,3.815,0,0,1,3.751-2.961c1.981.273,2.905,3.274,3.356,4.738,1.32,4.287-.085,7.231,1.184,7.9,1.2.628,3.441-1.485,3.751-1.777,1.76-1.659,1.47-2.752,3.75-6.317,1.23-1.923,1.868-2.894,2.961-3.355,1.577-.665,2.969-.1,3.553-.987.54-.825-.377-1.727.2-2.566.606-.887,1.9-.276,2.763-1.185.742-.78.083-1.54.592-2.961.789-2.2,3.031-2.227,3.159-3.75.119-1.425-1.789-2.028-1.579-3.159.268-1.449,3.492-.932,4.54-2.566,1.522-2.373-1.974-8.608-6.712-12.633-3.789-3.219-7.531-4.31-7.7-7.3-.085-1.522.817-2.4.2-3.75-.774-1.688-2.609-1.248-4.145-2.961-1.837-2.049-2-5.788-.592-6.909,1.2-.951,3.01.39,3.948-.592.779-.817.555-2.822-.395-4.146-2.449-3.41-8.835-1.066-10.067-3.75-.513-1.118.134-2.524.789-3.948,1.088-2.364,2.322-2.484,3.158-4.343.634-1.409.432-2.932,0-5.922-.578-4.012-.867-6.018-1.973-7.7a11.46,11.46,0,0,0-6.355-4.437c.386,1.059.725,1.689.367,2.529-.625,1.463-2.866,2.388-4.738,2.237-1.574-.127-2.236-.963-3.026-.527-.818.451-.377,1.492-1.185,3.027a5.99,5.99,0,0,1-4.079,3.027c-1.463.251-1.821-.418-2.632,0-1.529.787-.488,3.281-2.106,5.527a6.5,6.5,0,0,1-5,2.5c-1.987.028-2.45-1.057-5.4-1.974-3.348-1.041-3.665.074-5.647-.784-1.827,5.121-3.226,6.284-4.223,6.246-1.637-.064-1.942-3.352-4.737-4.146-2.6-.738-5.271,1.28-6.712,2.369-1.665,1.259-5.191,4.528-4.343,6.712.722,1.857,3.9,1.112,5.725,3.75a6.543,6.543,0,0,1,.987,3.948c-.056,4.162-3.225,7.907-5.426,9.97a3.133,3.133,0,0,1,2.86.1c1.473,1.057,1.18,4.1-.2,5.33-.715.638-1.363.47-3.75.79-3.327.445-4.99.668-5.527,1.579-.925,1.568,1.1,5.046,3.75,7.106,3.4,2.641,7.286,2.532,7.3,3.751.015,1-2.6,1.175-3.159,3.158-.368,1.311.581,1.925.2,3.158-.479,1.542-2.312,1.7-3.751,2.764-2.479,1.829-2.635,5.486-2.763,8.488-.232,5.426,1.544,12.633,4.54,13.028,1.87.247,2.7-2.361,4.54-1.974,2.6.546,2.089,5.977,5.922,7.9,1.584.793,2.637.353,3.382.834.64-.346,1.353-.7,2.145-1.031C1415.122,5547.124,1417.654,5547.369,1418.134,5545.89Z" fill="#ebebeb"/>
      <path id="Path_56" data-name="Path 56" d="M1471.826,5535.822c-.493,1-1.507,1.021-2.369,2.566-.085.154-1.741,3.24,0,5.725a4.558,4.558,0,0,0,4.541,1.974c1.035-.286,1.743-1.243,3.158-3.158,1.291-1.748,1.168-2.062,1.974-2.764,1.36-1.185,3.7-2.025,4.737-1.184,1.162.943-.353,3.17.987,4.737a3.616,3.616,0,0,0,3.948.79,4.167,4.167,0,0,0,2.172-4.738c-.618-2.279-3.59-2.93-3.356-3.75.255-.893,3.638.347,5.724-1.579,1.134-1.047,1.051-2.258,2.369-2.764,1.17-.449,1.812.285,2.566-.2,1.405-.9.274-4.143,1.185-4.541,1-.435,2.973,3.19,4.145,2.764,1.091-.4-.082-3.728,1.777-5.33,1.281-1.1,2.862-.4,3.355-1.381.647-1.283-1.8-3.033-1.184-4.343.479-1.015,2.14-.371,3.751-1.382,2.221-1.394,3.336-5.3,2.171-7.9-1.365-3.041-5.264-2.953-5.33-4.935-.034-1.032,1.228-1.938,3.751-3.75,2.474-1.777,3.984-2.862,5.329-2.369,1.255.459,1.006,1.791,2.567,2.566,1.714.851,3.917.192,3.948-.2.024-.32-1.414-.517-1.382-.79.039-.334,2.277-.82,4.342,0,1.942.771,2.225,2.1,3.159,1.974,1.493-.2.977-3.61,3.158-5.527,2.466-2.167,5.588.034,8.686-1.579a6.565,6.565,0,0,0,2.784-3.02,3.868,3.868,0,0,1-2.276.035c-3.147-1.2-2.311-6.452-5.285-7.549-1.973-.727-3.718,1.077-4.529.189s.1-3.685,1.51-4.058c1.184-.313,1.843,1.315,3.4,1.227,1.475-.083,2.5-1.645,3.586-3.3,2.054-3.134,1.465-4.425,3.208-5.944,1.53-1.334,2.47-.764,3.869-1.888,2.415-1.941,2.313-5.816,2.264-7.643-.082-3.115-1.911-6.9-5.567-14.343-1.812-3.689-2.649-5.146-4.058-6.794-1.39-1.627-1.784-1.622-5.284-4.718l-.89-.789a6.552,6.552,0,0,0-1.612,1.748c-1.276,2.054-.762,3.914-1.843,4.342s-2.96-.9-3.553-2.5a5.317,5.317,0,0,1,.4-3.816c.722-1.744,1.693-2.174,1.448-2.9-.279-.82-1.6-.45-3.027-1.71-1.014-.894-1.126-1.763-1.579-1.711-.815.094-.634,2.93-1.843,3.29-.583.174-.9-.405-1.974-.79-1.971-.705-4.443-.023-4.606.79-.184.923,2.6,2.048,2.369,2.632-.189.472-2.026-.235-2.763.658-.52.63.018,1.437-.527,1.974-.365.36-.861.246-2.237.131-2.8-.233-3.466.01-3.816-.526-.436-.667.4-1.35,0-2.106-.521-.99-2.736-1.3-4.343-.526s-1.255,2.165-2.9,2.764c-1.754.64-4.1.295-4.606-.79-.259-.558.113-1-.263-1.579a2.02,2.02,0,0,0-1.843-.79c-1.635.232-1.449,2.95-3.684,4.738-1.545,1.235-2.186.379-3.948,1.447-3.382,2.051-2.406,6.042-5.133,7.107-1.8.7-4.136-.29-5.4-1.316-1.691-1.379-1.512-3.007-2.764-3.159-1.489-.18-2.106,1.707-4.737,2.237-1.562.315-3.439.072-3.816-.789-.23-.524.26-.9,0-1.579-.315-.823-1.176-.653-1.843-1.448-.861-1.026-.007-2-.789-3.29-.671-1.106-1.431-.612-2.238-1.711-1.032-1.406-.127-2.68-1.316-4.079-.519-.611-.712-.392-1.316-1.053-1.191-1.3-.848-2.6-1.447-3.553a3.106,3.106,0,0,0-2.389-1.215,2.408,2.408,0,0,1,.02.294c-.031,2.11-2.963,2.387-4.869,5.132-.574.827-.326.827-1.579,8.028-.9,5.139-1.15,5.879-.79,7.5a11.029,11.029,0,0,0,.423,1.419,11.46,11.46,0,0,1,6.355,4.437c1.106,1.68,1.4,3.686,1.973,7.7.432,2.99.634,4.513,0,5.922-.836,1.859-2.07,1.979-3.158,4.343-.655,1.424-1.3,2.83-.789,3.948,1.232,2.684,7.618.34,10.067,3.75.95,1.324,1.174,3.329.395,4.146-.938.982-2.752-.359-3.948.592-1.411,1.121-1.245,4.86.592,6.909,1.536,1.713,3.371,1.273,4.145,2.961.62,1.35-.282,2.228-.2,3.75.167,2.994,3.909,4.085,7.7,7.3,4.738,4.025,8.234,10.26,6.712,12.633-1.048,1.634-4.272,1.117-4.54,2.566-.21,1.131,1.7,1.734,1.579,3.159-.128,1.523-2.37,1.552-3.159,3.75-.509,1.421.15,2.181-.592,2.961a1.644,1.644,0,0,1-.575.391C1472.142,5533.321,1472.3,5534.867,1471.826,5535.822Z" fill="#ebebeb"/>
      <path id="Path_57" data-name="Path 57" d="M1438.729,5631.757c.334-2.011,2.03-3.466,1.316-5-.5-1.08-1.656-1.034-1.974-2.237-.322-1.222.7-1.917.264-2.763-.443-.862-1.644-.418-2.764-1.316-1.23-.986-1.783-3.127-1.053-4.08.833-1.086,3.224-.482,5.133,0,4.958,1.253,6.444,3.456,7.632,2.764,1.432-.835.794-4.92,0-10-.58-3.716-1.185-5.4-.131-7.238a6.43,6.43,0,0,1,3.421-2.9c1.543-.475,2.507.073,3.158-.658s-.042-1.563.264-3.421c.348-2.118,1.424-2.121,1.447-3.553.038-2.312-2.75-3.23-2.368-5,.253-1.175,1.551-1.107,1.842-2.369s-.932-1.774-1.974-4.211c-1.139-2.664-.379-3.713-1.711-5.132-.944-1.006-1.581-.752-2.1-1.711-.7-1.274-.184-2.841.263-4.211.639-1.96,1.223-2.085,1.579-3.553s-.116-1.806-.263-4.212c-.123-2.006-.324-5.3,1.579-7.5.755-.871,1.118-.734,1.842-1.447.937-.923,1.781-2.593,1.593-5.858a2.07,2.07,0,0,1-1.856.331c-1.269-.665.136-3.609-1.184-7.9-.451-1.464-1.375-4.465-3.356-4.738a3.815,3.815,0,0,0-3.751,2.961c-.369,2.025,1.754,3.779,1.382,4.146-.4.393-2.372-2.091-5.329-2.567-1.82-.292-2.53.415-6.909,1.974-5.137,1.83-8.091,2.846-9.475,1.58-1.257-1.15-.628-3.64-1.777-3.948-.653-.175-.967.6-1.974.592-1.483-.009-1.966-1.694-2.961-1.579-1.059.122-2.034,2.21-1.974,4.145.081,2.626,2.019,3.385,1.579,4.738-.48,1.479-3.012,1.234-7.106,2.961-.792.333-1.505.685-2.145,1.031a1.375,1.375,0,0,1,.368.35c1.154,1.572-.9,4.174-2.171,8.488a25.4,25.4,0,0,0-1.012,7.119c6.8-4.337,11.644-8.118,11.838-7.912.239.255-5.566,7.675-14.595,13.085-.729.437-2.037,1.195-5.446,3.223-5.617,3.342-7.437,4.479-9.652,6.339-2.174,1.826-3.261,2.739-4.026,4.026-2.666,4.487.933,8.045-.975,10.176-1.633,1.823-15.994,2.735-17.457.33-3.271-5.379-13.683-4.907-17.8-7.989-1.625-1.215-10.412,1.006-20.131,1.51-2.486.128,1.391,4.208,0,7.549-1.573,3.779-6.32,4.979-6.542,5.032-4.34,1.034-8.648-3.06-8.556-.5.09,2.5.795,5.942-3.019,7.234-1.866.633.993,4.554,0,6.857-2.957,6.855-14.155,7.77-13.117,14,.761,4.563-9.665-.013-10.946,3.019-1.715,4.062-1.492,5.773-6.133,9.657-6.256,5.233-13.126,9.351-14.249,11.2-.784,1.29-4.169,1.764-5.882-.126-.912-1.006-10.758,4.012-11.764,5.788-.1.184-.471.406-.649.851a5.616,5.616,0,0,0-.2,3.112c.9,2.629.166,3.724,1.038,4.247.311.186.6.035,1.981-.472,3.534-1.3,3.711-1.07,4.247-1.6,1.464-1.46.4-3.428,1.51-4.058.945-.538,2.04.718,5.189,2.17,3.92,1.808,4.976,1.131,5.851,2.454,1.384,2.093-.909,4.32.66,6.888.9,1.472,2.668,2.4,3.4,1.982s.121-2.053,1.038-2.642c.635-.409,1.168.223,2.359.094a3.8,3.8,0,0,0,3.3-2.925,3.215,3.215,0,0,0-.755-2.265c-1.435-1.847-4.268-1.977-4.246-2.076a6.207,6.207,0,0,0,2.831.094,4.755,4.755,0,0,0,2.736-2.359c.527-1.058.192-1.461.472-3.114.13-.767.72-4.239,2.454-4.623,1.1-.245,2.561.79,2.547,1.6-.014.848-1.614.913-2.642,2.642a2.758,2.758,0,0,0-.472,2.359,2.2,2.2,0,0,0,2.643,1.227c.994-.591.085-2.9,1.132-3.492.652-.366,1.182.429,2.265.189,1.328-.294,1.329-1.669,2.547-2.17,1.665-.685,2.938,1.358,4.247.849,2.154-.838.908-7.233,2.831-7.832.993-.31,1.763,1.262,3.019.944,1.758-.446,2.266-4.034,2.548-3.964.258.065-.866,2.9.283,4.058s4.028.2,4.624,0c1.154-.384,1.323-.8,2.548-1.132a9.6,9.6,0,0,1,4.34.094c2.337.363,3.562.553,4.907,1.415,1.612,1.034,2.092,2.2,2.642,1.982.57-.222.817-1.762.189-2.737-.866-1.343-2.9-.841-3.114-1.6-.283-1.011,2.847-3.51,4.435-2.736,1.1.535.57,2.2,2.265,5.85a8.919,8.919,0,0,0,1.51,2.454c.466.5,2.141,2.318,3.963,2.076,1.784-.238,2.535-2.291,3.3-1.982.749.3.127,2.3,1.132,2.925.952.591,2.36-.673,2.831-.188.556.572-1.38,2.371-.85,4.435.207.8.831,1.815,1.605,1.887,1.582.147,2.842-3.725,3.585-3.492.719.226-.529,3.825.944,4.907.9.658,2.689.309,3.68-.66,1.674-1.638.166-4.174,1.982-5.851.9-.831,1.848-.742,2.076-1.6.26-.986-.716-2.1-.944-2.359-.827-.943-1.373-.763-1.981-1.6-.722-1-.831-2.461-.378-2.737.483-.294,1.606.761,1.7.85a6.645,6.645,0,0,1,1.226,1.887c.679,1.2,1.409,2.482,2.265,2.548,1.453.112,3.171-3.3,2.453-4.152-.339-.4-1.042-.015-1.6-.566a1.728,1.728,0,0,1-.283-1.982c.452-.687,1.358-.26,2.831-1.132.509-.3.994-.589,1.038-1.038.065-.658-.9-.825-1.227-1.793-.367-1.076.553-1.653.189-2.548-.464-1.142-2.409-1.3-2.359-1.51.031-.132.806-.013,1.6,0,.717.012,2.581.044,3.492-.66,1.15-.891,1.023-3.147.835-4.555a4.5,4.5,0,0,1-.155-1c-.021-.13-.031-.205-.02-.206a.689.689,0,0,1,.02.206c.034.208.1.562.155,1a2.524,2.524,0,0,0,.58,1.063,3.424,3.424,0,0,0,2.642.755,7.633,7.633,0,0,0,4.058-1.793c2.218-1.535,5.473-2.061,11.984-3.114a21.232,21.232,0,0,1,4.529-.472c.873.052,2.805.249,7.644,2.643,4.463,2.208,6.7,3.312,8.87,5.756a22.306,22.306,0,0,1,3.019,4.435c1.856,3.591,1.811,5.939,2.548,5.945.871.006,2.132-3.264,1.038-4.624-.659-.82-1.84-.53-2.076-1.227-.256-.755.833-1.974,1.982-2.548,1.917-.957,4.082-.153,5,.189,1.671.621,1.492,1.091,2.925,1.6,2.42.867,3.185-.384,5.662.189,2.807.649,3.12,2.556,5.19,2.359a4.3,4.3,0,0,0,3.208-2.17c.856-1.585-.217-2.487.472-3.68.928-1.607,3.269-.654,8.209-2.076,2.641-.761,2.856-1.285,4.11-1.137C1438.8,5634.83,1438.519,5633.024,1438.729,5631.757Z" fill="#ebebeb"/>
      <path id="Path_58" data-name="Path 58" d="M1306.21,5338.557c-.683-5.46-1.145-9.155-3.816-10.528-2.129-1.093-4.745-.24-7.5.658-4.716,1.538-6.644,3.908-7.369,3.29-.841-.715.584-4.882,3.553-7.9,3.162-3.209,6.714-3.728,6.58-5.263-.1-1.173-2.185-.978-3.554-3.027-1.445-2.165.108-3.532-1.052-6.317-1.307-3.135-4.019-3.18-4.212-5.659-.157-2.029,1.568-3.209.922-4.211-.735-1.138-3.166.07-4.08-1.053-1.018-1.249,1.469-3.394,1.316-6.843-.148-3.332-2.706-6.627-4.737-6.579-1.329.031-1.556,1.471-3.027,1.579-1.985.146-2.589-2.4-5.132-3.685-2.607-1.317-5.534-.442-9.212.658-4.6,1.374-4.86,2.8-8.028,2.9s-4.269-1.3-5.79-.4c-2.112,1.261-.664,4.348-3.027,6.58-2.41,2.278-6.509,1.514-6.843,1.448-1.84-.368-2.07-1.073-3.668-1.678a30.852,30.852,0,0,0-3.526.639c-2.935.715-4.417,1.1-5.158,2.382a6.783,6.783,0,0,0-.963,3.968,1.7,1.7,0,0,1-.161,1.375c-.382.437-.943.16-1.444.428-1.011.535-.13,2.4-.923,4.471-.558,1.464-1.8,2.621-3.366,4.085a4.168,4.168,0,0,0-1.409,1.826c-.374,1.186.252,1.857-.178,2.368-.619.732-2.045-.49-4,.129-.67.212-.5.356-2.685,1.676-1.277.77-1.923,1.152-2.322,1.121-1.472-.117-1.613-2.236-3.1-2.454-1.284-.19-2.592,1.189-3.147,2.219a3.259,3.259,0,0,0-.461,2.236c.225,1.07,1.088,1.649,2.114,2.339a6.307,6.307,0,0,0,4.316,1.4c.741-.108,1.24-.392,1.507-.122.324.329.088,1.253-.415,1.843-.785.919-1.739.433-3.107,1.029-2.119.918-1.751,2.909-3.592,3.461a5.535,5.535,0,0,1-3.61-.622c-1.719-.724-2.1-1.545-2.733-1.316-1.048.378-.413,2.778-2.055,3.94a5.391,5.391,0,0,1-1.455.526c-2.662.767-3.75.464-4,1.023-.283.62.987,1.16,2.023,3.125,1.163,2.207.507,3.316,1.763,4.487.9.839,1.361.383,2.34,1.27,1.372,1.24.769,2.4,1.965,3.615,1.37,1.391,2.867.583,3.582,1.715.974,1.543-1.455,3.616-.587,5.008.972,1.555,4.615-.068,6.712,2.181a15.869,15.869,0,0,1,.931,1.4,27.725,27.725,0,0,0,2.982,3.436,11.164,11.164,0,0,0,1.7,1.594c2.018.722,3.562-2.023,5.643-1.429,1.526.434,1.971,2.278,2.947,2.038.713-.175.717-1.226,1.559-1.41.8-.176,1.229.69,1.929.525.786-.183.678-1.37,1.489-2.513,1.3-1.835,3.233-1.146,3.979-2.52.834-1.539-1.374-2.809-.983-5.192.28-1.708,1.518-1.71,4.913-5.4,2.182-2.368,2.416-3.181,3.471-3.276,1.783-.166,3.713,1.917,4.53,3.816,1.138,2.654-.239,4.141,1.325,6.527a5.777,5.777,0,0,1,1.317,2.344c.25,1.4-.521,1.831-.247,2.958a3.9,3.9,0,0,0,3.871,2.644c.85-.115,1.041-.626,1.652-.5.984.195,1.756,1.763,1.815,3.2.088,2.272-1.675,2.806-1.6,5.188.041,1.347.656,2.825,1.445,2.957.574.1.743-.6,1.686-.8,1.221-.255,1.678.766,2.911.64,1.3-.134,1.406-1.32,2.553-1.393,1.308-.081,1.66,1.43,2.993,1.646,1.848.3,2.52-2.377,4.614-2.844a2.563,2.563,0,0,1,1.167.01,2.3,2.3,0,0,1,1.416-1.493c.826-.221,1.632.212,4.474,2.369,4.5,3.417,4.882,4.155,5.922,4.079,2.622-.191,4.344-5.187,4.869-6.711,1.751-5.081.528-8.326,2.237-8.949,2.12-.772,4.218,3.144,7.633,2.5a6.164,6.164,0,0,0,4.606-5.264c.017-.195.224-2.807-1.316-3.817-1.66-1.087-4.017.557-4.475-.131-.561-.844,3.2-2.98,3.29-6.448.017-.672-.127-.481-.921-3.817-.994-4.177-.826-4.719-.526-5,.719-.676,2.653-.285,3.816.789,2.568,2.371,1.214,7.923,1.053,8.554-.527,2.063-1.249,2.866-.79,4.079.565,1.492,2.563,2.679,3.817,2.238C1307.6,5349.673,1306.544,5341.226,1306.21,5338.557Z" fill="#ebebeb"/>
      <path id="Path_59" data-name="Path 59" d="M1605.813,5514.615c.13-.478,1.826.109,2.642-.566,1.755-1.451-.869-8.481-4.907-14.06a40.94,40.94,0,0,0-8.587-8.493c-5.478-4.356-5.784-2.953-14.72-8.4-.59-.359-3.095-1.893-3.775-1.227-.4.392.219,1.163-.094,1.6-.895,1.261-6.969-3.581-14.626-3.491-2.51.029-4.551.053-6.323,1.415-5.087,3.911-2.537,14.684-4.435,15-1.123.189-1.814-3.614-5.1-4.529a3.574,3.574,0,0,0-1.4-.13,6.565,6.565,0,0,1-2.784,3.02c-3.1,1.613-6.22-.588-8.686,1.579-2.181,1.917-1.665,5.332-3.158,5.527-.934.122-1.217-1.2-3.159-1.974-2.065-.82-4.3-.334-4.342,0-.032.273,1.406.47,1.382.79-.031.389-2.234,1.048-3.948.2-1.561-.775-1.312-2.107-2.567-2.566-1.345-.493-2.855.592-5.329,2.369-2.523,1.812-3.785,2.718-3.751,3.75.066,1.982,3.965,1.894,5.33,4.935,1.165,2.595.05,6.5-2.171,7.9-1.611,1.011-3.272.367-3.751,1.382-.619,1.31,1.831,3.06,1.184,4.343-.493.977-2.074.277-3.355,1.381-1.859,1.6-.686,4.934-1.777,5.33-1.172.426-3.148-3.2-4.145-2.764-.864.378.106,3.317-.994,4.383a42.711,42.711,0,0,1,1.29,4.6c.687,3.123.494,3.945.1,4.54-.666,1-1.849,1.271-1.974,2.369a2.576,2.576,0,0,0,.394,1.382c.938,2.42-3.662,4.837-3.454,7.7s5,3.441,5.034,6.514c.01,1.107-.6,2.424-1.481,2.665-1.939.53-4.246-4.387-5.626-3.849-.665.259-.892,1.7-.691,2.862.591,3.416,4.652,3.213,6.712,7.4a12.577,12.577,0,0,1,1.283,5.824,11.469,11.469,0,0,0,0,3.849,6.776,6.776,0,0,0,.177.667,19.154,19.154,0,0,0,6.83-.667c3.968-1.16,7.441-2.175,10.463-4.54a2.246,2.246,0,0,1,1.48-.691c2.515.128,2.811,7.066,5.725,7.6,1.558.286,1.986-1.607,4.934-1.876,1.87-.17,4.109.371,4.442,1.481.172.572-.32.771-.3,1.579.051,1.7,2.266,2.217,2.27,3.454,0,1.085-1.7,1.463-3.06,2.764a7.4,7.4,0,0,0-2.075,4.311c.251-.038.46-.056.595-.067,2.039-.171,3.317.915,4.737,1.579a12.146,12.146,0,0,0,7.581.652,9.419,9.419,0,0,1,2.979-2c1.529-.661,1.932-.357,5-1.038,2.914-.646,2.742-.963,3.963-.944,2.15.034,2.9,1.019,4.435.472.943-.335,1.876-1.138,1.793-1.793s-1.133-.771-1.133-1.321,1.042-1.212,2.076-1.226c1.5-.021,1.97,1.342,3.02,1.132,1.085-.217,1.943-1.943,1.51-2.737-.425-.777-1.991-.481-2.076-.943-.076-.411,1.159-.65,1.981-1.51,1.83-1.913,1.048-6.274-.377-6.794-.384-.14-.668.226-1.793.377a4.747,4.747,0,0,1-2.925-.377,3.668,3.668,0,0,0,1.51-.189c1.178-.6.641-2.074,1.7-3.4,1.26-1.576,3.068-.786,4.058-2.359.732-1.164.4-2.636.566-2.642.206-.007-.072,2.2,1.132,3.114,1.019.774,2.252-.024,2.831.66.793.937-1.07,2.955-.472,3.681.769.931,4.995-.995,8.021-3.775,1.325-1.217,2.778-2.59,2.642-4.341a5.006,5.006,0,0,0-1.415-2.736,8.194,8.194,0,0,0-3.114-2.265c-2.379-1-4.3-.529-4.341-.849-.035-.3,1.612-1.078,3.492-.944,2.426.173,3.924,1.771,4.246,1.416.158-.175-.106-.67-1.133-2.265-1.811-2.814-2.568-3.727-2.359-3.963.225-.254,1.43.423,2.171.943a12.716,12.716,0,0,1,2.359,2.359c1.785,2.01,2.677,3.015,3.3,2.831.942-.276.465-2.695,1.792-3.3.887-.406,1.576.456,2.359,0,.992-.578.306-2.2,1.322-3.02.987-.8,2.19.286,3.3-.472,1.29-.879,1.073-3.292,1.038-3.68-.237-2.634-2.026-3.885-1.51-4.624.4-.567,1.973-.575,2.831.189,2.317,2.063-1.247,9.191-.849,9.342.273.1,2.362-3.086,3.3-7.832.712-3.594.044-4.435.66-7.455.789-3.862,2.432-3.783,4.435-8.964,1.483-3.836,4.388-11.35,1.6-13.966C1607.022,5515.494,1605.7,5515.037,1605.813,5514.615Z" fill="#ebebeb"/>
      <path id="Path_60" data-name="Path 60" d="M1536.079,5584.184c0-1.237-2.219-1.755-2.27-3.454-.024-.808.468-1.007.3-1.579-.333-1.11-2.572-1.651-4.442-1.481-2.948.269-3.376,2.162-4.934,1.876-2.914-.534-3.21-7.472-5.725-7.6a2.246,2.246,0,0,0-1.48.691c-3.022,2.365-6.495,3.38-10.463,4.54a19.154,19.154,0,0,1-6.83.667c.266.816.58,1.151.81,1.9.963,3.135-2.253,4.767-1.579,7.205.839,3.039,6.51,2.948,7.007,6.218.143.94-.17,1.968.494,2.467.645.486,1.277-.234,2.27,0,1.809.428,1.547,3.251,4.244,5.232a2.752,2.752,0,0,0,1.678.69c1.225,0,1.571-1.122,2.566-1.381,2-.523,3.333,3.292,5.527,3.158,2.045-.125,4.2-3.644,4.441-6.712.135-1.733-.391-2.724.4-3.849a4.183,4.183,0,0,1,2.86-1.512,7.4,7.4,0,0,1,2.075-4.311C1534.382,5585.647,1536.082,5585.269,1536.079,5584.184Z" fill="#ebebeb"/>
      <g id="Group_71" data-name="Group 71">
        <path id="Path_61" data-name="Path 61" d="M1354.243,5091.966a1.543,1.543,0,0,0-.257-.351A1.734,1.734,0,0,0,1354.243,5091.966Z" fill="#ebebeb"/>
        <path id="Path_62" data-name="Path 62" d="M1416.95,5310.2c1.24-.555,2,.393,3.75.395,3.225,0,3.686-3.229,8.785-6.317,3.2-1.937,4.9-1.8,5.922-3.849.779-1.559.055-2.164.789-4.146.782-2.108,2.821-4.712,5.429-5.132,3.024-.487,4.932,2.265,6.415,1.283,1.154-.764.093-2.493,1.184-4.441,1.817-3.244,6.722-1.96,7.7-4.442.581-1.475-.666-3.484-3.159-7.5-1.656-2.668-2.835-3.894-2.368-4.935.442-.985,2.1-1.219,3.52-1.25,0,0,4.683-3.439,6.58-5a30.256,30.256,0,0,0,4.922-5.176c-.158-.464-.337-.976-.545-1.548-1.872-5.157-2.653-5.91-3.019-6.228-1.953-1.7-3.053-.6-6.134-2.17-4.056-2.067-3.92-4.875-7.077-5.473-2.571-.488-4.191,1.084-5.19.094-1.171-1.16.74-3.635-.377-5.19-1.433-1.993-6.5-.608-6.983-.472-6.658,1.884-9.037,7.435-11.89,6.417-1.556-.556-1.408-2.408-3.586-3.02-1.6-.449-2.322.37-4.057-.188-1.563-.5-1.573-1.358-3.02-2.171-2.361-1.326-3.709.181-6.794-.566-3.295-.8-5.923-3.526-5.567-4.341.187-.429,1.215-.353,2.17-.283,4.7.348,6.579,3.033,9.908,2.359.58-.117.256-.144,1.793-.66a38.6,38.6,0,0,1,6.417-1.416c5.437-1.241,5.948-8.392,10.1-8.4,1.744,0,1.685,1.261,4.247,1.51,1.794.175,3.517-.479,6.888-1.793,3.45-1.345,3.744-1.849,3.869-2.17.725-1.855-1.286-4.89-3.68-5.568-.969-.274-1.177.071-2.453-.094-2.7-.349-5.475-2.376-5.285-3.774.213-1.567,4.043-1.628,4.058-2.831.012-.964-2.433-1.96-4.624-2.171a12.867,12.867,0,0,0-5,.755c-5.285,1.424-7.928,2.136-8.115,1.793-.358-.655,2.956-4.317,7.36-4.907,2.6-.349,3.277.685,6.417.661,2.527-.02,4.452-.831,8.3-2.454,5.756-2.424,9.565-4.029,9.909-6.794.186-1.5-.741-2.642.094-3.869.7-1.035,1.769-.82,2.831-1.887,1.125-1.131,1.08-2.53,1.321-3.68,1.063-5.07,7.595-4.833,9.436-10.38.786-2.368-.083-3.381,1.227-5.095,1.166-1.527,2.472-1.53,4.152-3.681a14.458,14.458,0,0,0,1.6-2.736,25.939,25.939,0,0,0,1.793-4.718c.93-3.4.457-4.158,1.321-9.248.676-3.984,1.2-4.908,1.981-5.567,1.214-1.024,1.957-.489,3.964-1.51s3.132-2.523,4.623-4.529c1.746-2.349,2.687-3.615,2.926-5.473.071-.555.172-1.88-1.888-6.323-2.5-5.4-3.755-8.1-6.6-9.153a10.1,10.1,0,0,0-4.058-.566c-2.173.151-2.643.931-4.246.661-1.914-.323-2.42-1.635-3.869-1.416-1.006.152-1.359.876-2.076,1.416-3.326,2.506-11.136-1.446-14.248-3.02-3.193-1.615-3.933-2.463-5.662-2.265-2.273.261-3.361,2-5.851,1.6a4.28,4.28,0,0,0-2.453-.1c-1.133.425-1.541,1.454-1.887,1.321-.443-.169.286-1.828-.095-3.208-.676-2.455-4.832-3.926-8.115-3.869-5.123.09-9.361,3.922-9.814,4.341-.772.716-2.436,2.407-2.736,2.17-.25-.2.765-1.483.283-2.265-.4-.644-1.587-.58-1.793-.566-3.338.237-5.505,5.7-6.416,5.284-.412-.189-.324-1.471-.755-1.509a.321.321,0,0,0-.224.087,8.055,8.055,0,0,1-5.061.385c-2.037-.471-2.824-1.556-3.4-1.133-.4.3-.187.951-.283,1.7-.252,1.959-2.46,3.182-3.869,3.963-3.58,1.984-8.951,3.063-9.813,1.51-.494-.89.445-2.726,1.321-2.831.426-.051.591.337,1.226.66,1.554.791,3.962.194,4.435-.943.268-.644-.281-.985-.094-1.7.3-1.133,1.973-1.379,3.869-2.076.714-.262,5.847-2.15,5.945-4.529a2.109,2.109,0,0,0-1.227-1.982c-1.253-.406-2.371,1.631-3.774,1.227-.872-.251-.849-1.154-1.793-1.416a3.328,3.328,0,0,0-2.548.85c-1.917,1.234-5.251,3.084-5.567,2.736-.351-.385,1.96-4.64,5.756-5.473,2.091-.459,2.78.528,5.095-.188,2.445-.757,3.661-2.471,4.435-1.982.742.469-.091,2.222.85,2.925a2.048,2.048,0,0,0,2.359-.283c.81-.725.255-1.61.754-2.925.718-1.888,2.464-1.653,4.624-4.058,1.269-1.412,2.069-3.054,1.793-3.3-.493-.445-4.335,3.635-5.473,2.83-.641-.453.083-2.1-.566-2.453-.793-.435-2.149,1.86-3.775,1.51-.909-.2-.984-1.021-2.17-1.227-.881-.153-1.068.263-1.887.094-1.06-.217-1.12-.989-2.171-1.509-1.343-.666-2.046.2-3.3-.283-1.874-.721-2.615-3.53-2.265-3.775.273-.19,1.073,1.269,3.114,2.17a9.218,9.218,0,0,0,3.492.661c3.909.212,5.864.318,6.982-.472,2.772-1.958.869-6.44,3.586-7.926,1.584-.867,3.189.133,4.624-1.227a4.479,4.479,0,0,0,1.132-2.359c1.183-4.109,7.366-3.385,13.211-8.4,3.3-2.835,3.405-4.848,6.794-6.134,1.886-.716,2.776-.441,4.624-1.51,1.791-1.036,2.791-2.434,4.718-5.19,1.054-1.508,3.908-5.589,3.02-6.511-.427-.442-1.313.258-2.076-.283-.882-.624-.927-2.423-.472-3.774.755-2.245,2.52-2.158,3.869-4.718.7-1.327,1.25-3.3.566-3.869-.882-.735-3.176,1.385-4.718.377-.489-.319-.314-.568-.944-1.038a4.125,4.125,0,0,0-3.4-.566c-1.23.32-1.392.982-2.076.849-1.126-.218-1.319-2.133-1.982-2.076-.435.038-.845.907-.849,1.7-.006,1.324,1.128,1.747.944,2.736-.15.8-1.079,1.485-1.6,1.321-.56-.174-.268-1.183-.944-1.7-1.068-.813-3.187.65-3.586.094-.248-.345.553-.934.378-1.509-.323-1.057-3.849-1.775-6.511-.378-2.487,1.305-3.366,4.006-4.341,3.68-.614-.205-.405-1.322-1.132-1.6-1.126-.437-2.594,1.867-3.586,1.415-.616-.28-.358-1.308-1.038-1.6-.822-.357-1.751.9-2.359.567-.691-.384-.03-2.311-.566-2.548s-1.238,1.624-2.831,1.887c-1.228.2-1.528-.781-2.737-.661-1.892.19-2.4,2.725-3.869,2.643-1.056-.06-1.122-1.384-2.17-1.6-2.361-.5-5.243,5.549-5.945,5.19-.318-.162-.042-1.573.472-2.736.964-2.184,2.351-2.567,2.265-3.492-.125-1.339-3.265-3.013-5.568-2.17-3.643,1.335-4.543,8.736-4.718,8.681-.08-.025.53-1.463-.094-2.17-.532-.6-1.481-.134-1.793-.566-.6-.838,2.7-2.961,2.548-5.567-.116-2.005-2.253-3.963-3.586-3.681-1.655.351-2.053,4.15-2.548,4.058-.43-.08.459-2.841-.849-4.907-1.274-2.012-4.539-3.218-6.322-2.17-2.362,1.387-1.471,6.343-3.209,6.7-.874.179-1.412-1.012-2.359-.755-1.144.31-2.091,2.52-1.415,3.774,1.059,1.964,5.612.669,6.133,2.265a1.5,1.5,0,0,1-.849,1.7c-1.012.272-2.114-2.13-3.019-1.7-.6.286-.733,1.155-.755,1.321-.292,2.183,2.439,4.14,2.264,4.341-.214.246-3.649-3.481-5.19-2.737-1.392.673-1.41,5.083.567,8.3a10.449,10.449,0,0,0,1.491,1.879,11.852,11.852,0,0,1,4.925,3.122,11.852,11.852,0,0,1-4.925-3.122,2.5,2.5,0,0,0-1.775.1c-1.045.558-.987,1.993-1.792,2.076-1.366.14-2.52-3.886-3.492-3.681-.739.157-.555,2.589-1.321,2.737-.822.159-1.465-2.557-2.925-2.642a2.159,2.159,0,0,0-1.982,1.51c-.495,1.924,3.288,3.014,4.435,7.077.131.463.891,3.154-.472,4.529a3.552,3.552,0,0,1-2.264.849c-2.9.33-4.5-1.4-5.1-.849-.737.677.785,4.112,3.3,6.889,2.017,2.224,2.883,2.05,4.529,3.774,3.879,4.063,3.858,10.044,3.4,10.191s-1.494-5.653-5.095-6.605c-.964-.255-1.969-.125-2.642-.944-.823-1-.136-2.187-.944-3.019-.781-.8-2.552-.86-3.02-.189-.618.887.95,3.175,2.293,4.893a11.658,11.658,0,0,1,1.414,1.739,1.543,1.543,0,0,1,.257.351,1.734,1.734,0,0,1-.257-.351c-.3-.37-.837-1-1.414-1.739a4.653,4.653,0,0,0-2.859-1.5c-1.831-.115-2.387,1.479-4.152,1.321-2.607-.234-4.214-3.968-4.529-3.774-.261.16,1.5,2.309,1.321,4.906-.2,2.874-2.709,5.22-3.4,4.907-.846-.384,1.488-4.59-.378-6.605a4.135,4.135,0,0,0-4.906-.378c-2.3,1.5-2.111,5.654-.755,8.116,1.294,2.348,3.843,3.5,3.585,3.963-.175.312-1.258-.4-2.453,0a4.214,4.214,0,0,0-2.453,3.963c.035.905.436,1.925,4.529,5.473,3.627,3.144,5.1,3.891,4.907,4.341-.3.694-4.505.551-7.36-1.888-2.124-1.813-2.554-4.088-3.775-3.963-1.034.107-1.663,1.836-1.887,2.454a8.423,8.423,0,0,0-.189,4.152,38.766,38.766,0,0,0,.944,4.152c.856,3.939.285,5.2,1.132,5.661,1.634.9,5.076-3.055,6.039-2.264.586.48-.547,2.055.189,3.019,1.014,1.329,4.36-.1,4.529.378s-3.007,2.953-5.473,2.076c-1.156-.412-1.606-1.363-2.264-1.133-.729.255-1.03,1.715-.755,2.831a3.576,3.576,0,0,0,1.51,2.076c2.756,1.6,7.738-2.034,7.926-1.7.1.175-1.491.765-1.887,2.076-.643,2.124,2.274,4.727,2.076,4.906-.262.238-4.529-5.02-6.417-4.151-.769.353-.47,1.415-1.887,3.585-1.055,1.617-1.6,1.6-1.7,2.265-.433,2.79,8.694,5.662,8.3,6.983-.207.7-3.107.988-5.095-.189-.675-.4-.84-.728-2.4-1.831-1.226-.865-1.833-1.389-2.314-1.377-2.442.061-4.612,2.151-4.53,3.774.039.767.551.842,2.265,3.146,1.551,2.083,1.432,2.426,2.139,2.768,1.717.831,3.389-.721,4.34.188a1.626,1.626,0,0,1,.252,1.888c-.794,1.219-4.561,1.1-6.354-.818a8.086,8.086,0,0,0-1.635-1.825c-.385-.268-2.024-1.414-3.271-.692a2.332,2.332,0,0,0-1.007,2.643c.435,1.042,1.913,1.011,5.1,1.761,2.245.529,5.979,1.6,5.913,2.076-.052.379-2.529.708-5.1.126-3.792-.86-4.667-3-6.731-2.579-2.329.479-3.9,3.761-3.271,4.592.583.772,2.765-.964,5.347.063,1.54.612,2.773,2.027,2.516,2.7-.168.444-.911.4-3.585,1.006-2.011.459-2.218.629-2.265.818-.249,1,3.857,2.668,3.649,3.209-.164.424-2.6-.864-4.781.251-.842.431-1.139.963-1.888.944-1.024-.026-1.61-1.052-2.2-1.636-2.56-2.527-9.765-1.267-10.884,1.636a2.759,2.759,0,0,0,.692,3.019c1.005.707,2.024-.528,3.649-.063,2.09.6,2.261,3.173,3.838,3.209,1.136.025,1.394-1.3,2.767-1.321,1.239-.016,1.453,1.059,2.706,1.258,1.744.277,2.282-1.659,4.655-2.139,1.889-.383,4.217.3,5.158,1.887.467.786.724,2.015.252,2.391-.694.551-2.139-1.394-5.1-1.825-.448-.065-3.3-.481-4.466,1.007-.825,1.056-.4,2.553-.818,2.642-.514.108-.84-2.161-2.328-2.7a2.945,2.945,0,0,0-3.208,1.132c-1.4,2.267,1.7,7.722,4.781,7.99,1.313.114,2.839-.694,3.208-.126.185.284-.12.6-.125,1.069-.017,1.381,2.573,3.195,5.032,3.146,2.809-.056,5.486-2.542,6.228-5.1.463-1.593.156-3.153.944-3.46.733-.285,1.341.934,2.39.755,1.079-.184.985-1.565,2.642-2.957a9.431,9.431,0,0,1,2.643-1.446c1.718-.713,2.151-.5,2.768-1.07.982-.912.548-2.076,1.006-3.4,1.079-3.11,6.182-4.431,6.606-3.774.568.881-7.017,5.79-6.1,7.549.715,1.375,5.951-.477,6.291.5.22.633-1.633,2.361-3.271,2.139-1.272-.173-1.814-1.441-2.768-1.2-.647.166-.527.783-1.321,1.321-1.358.919-2.9-.083-3.523.692-.424.525.229,1.056,0,1.95-.476,1.856-3.778,1.467-4.907,3.648-.539,1.042-.514,2.538.189,3.146,1.38,1.2,5.065-1.3,5.221-1.007.111.209-1.5,1.89-3.837,2.2-1.97.263-3.267-.607-3.712,0-.382.522.2,1.692.818,2.391,1.106,1.24,2.5,1.157,2.516,1.572.04.912-6.694.866-8.052,3.963-.059.135-.608,1.387-.063,2.139.482.665,1.581.615,1.573.755-.014.235-3.028-.4-3.963.881-.693.946.428,2.021-.315,3.649-.54,1.184-1.524,1.47-1.384,2.076.175.754,1.746.481,2.2,1.258,1.005,1.711-4.581,6.487-4.026,7.171.391.482,3.5-1.474,3.774-1.069.208.3-1.606,1.26-1.887,3.019-.3,1.9,1.362,3.606,1.133,3.775s-1.334-1.947-2.7-2.013c-2.774-.134-5.859,8.154-4.844,8.807.822.53,4.325-3.966,4.781-3.586.264.221-.485,2.092-2.013,3.46-1.92,1.719-3.573,1.3-4.341,2.831-.532,1.057-.391,2.55.314,3.02,1.018.678,3.031-.892,3.209-.629.282.416-5.161,3.857-4.53,5.787.328,1,2.093.978,2.391,2.328.205.929-.46,1.719-.126,2.013s1.257-.251,1.573-.44c3.239-1.939,5.815-3.815,5.913-3.712s-1.945,1.712-4.341,4.4a6.265,6.265,0,0,1-2.768,2.2c-1.02.332-1.512.033-2.013.5-.924.868-.319,2.341-.566,4.026-.38,2.589-2.325,2.622-3.648,5.221-2.135,4.193,1.173,7.553-1.133,10.065-1.357,1.479-3.372,1.262-3.837,2.957-.268.976.327,1.309.126,2.705-.282,1.953-1.634,2.6-1.321,3.4.092.236.419.711,3.4.881,3.479.2,5.219.3,6.668-.818a5.218,5.218,0,0,0,2.013-3.334c.212-2.029-1.36-2.532-1.195-4.4.181-2.06,2.127-1.9,2.893-4.655.454-1.63.059-2.714,1.07-3.9.533-.625.873-.594,1.447-1.133,1.3-1.222.81-3.018,1.447-4.529,1.461-3.469,2.828-4.641,4.089-7.863a15.749,15.749,0,0,0,1.321-5.222c.265-5.207-2.839-8.529-1.573-11.827.143-.371.5-1.3,1.258-1.509,1.009-.279,1.741.984,2.517.692.862-.325.335-2.025,1.509-3.4.715-.836,1.181-.523,2.391-1.321,2.227-1.471,1.7-3.229,3.649-4.467,1.659-1.055,2.315.047,3.774-1.006,1.8-1.3,1.246-3.309,3.334-4.593a7.39,7.39,0,0,1,2.013-.755c.713-.2,3.007-.849,3.334-.251.226.411-.508,1.356-1.321,1.887-1.033.675-1.653.324-2.642.692-1.943.724-1.353,2.753-3.4,4.215-1.761,1.26-2.974.307-4.466,1.761-.981.956-.5,1.408-1.636,2.705-1.344,1.533-2.422,1.364-3.208,2.705-.57.972-.156,1.321-.5,2.768-.814,3.394-3.706,4.049-3.4,6.039.192,1.236,1.405,1.628,1.259,3.02-.09.855-.581,1.023-.5,1.636.19,1.491,3.386,2.731,4.152,1.95.309-.315-.013-.72-.063-2.139a11.874,11.874,0,0,1,.567-3.775c.081-.3.815-3.024,1.321-2.956.309.041.119,1.067.692,2.2.889,1.761,3.145,2.852,3.837,2.327.512-.388.191-1.679-.126-2.957-.41-1.65-.995-2.509-.881-2.579a4.856,4.856,0,0,1,2.2,3.334c.375,2.1-.951,3.129-.251,4.4a3,3,0,0,0,2.83,1.321c2.466-.274,4.616-4.207,3.964-6.983-.231-.98-.887-2.144-.5-2.453.3-.243.859.35,1.322.126.711-.345.039-2.056.566-3.838.628-2.128,2.718-3.52,3.082-3.271.245.167-.151,1.181-.943,3.208-.9,2.3-1.3,2.76-1.07,3.523a3.074,3.074,0,0,0,2.265,1.825c1.3.276,2.175-.594,3.145-.126.824.4.942,1.383,1.258,2.2,1.349,3.5,6.528,4.548,6.48,4.656a22.621,22.621,0,0,1-8.493-3.46c-1.792-1.123-2.742-1.99-3.963-1.7-1.927.46-2.755,3.379-2.957,4.089-1.13,3.984,1.181,5.117.252,8.682-.862,3.307-3.571,5.093-2.7,6.605.35.612.933.563,1.51,1.51.7,1.154.2,1.831.566,2.831.864,2.389,4.916,1.846,5.536,4.026.246.865-.35,1.1-.126,2.642.2,1.337.718,1.683,1.007,2.705a5.526,5.526,0,0,1-1.2,5.033c-1.874,1.88-4.9.691-5.6,2.264-.4.887.525,1.35.188,2.517-.517,1.792-2.927,1.516-3.9,3.585-.494,1.05,0,1.392-.566,2.768a6.671,6.671,0,0,1-2.076,2.643c-2.166,1.8-10.7,10.8-9.374,17.991.515,2.8,2.447,4.726,1.51,5.662a2.251,2.251,0,0,1-2.894-.189c-.65-.777.169-1.714-.062-3.774-.034-.3-.387-3.2-1.762-3.523-1.069-.252-2.657,1.073-3.019,2.579-.477,1.98,1.469,3.007,1.006,5.284-.289,1.423-1.12,1.373-1.321,2.58-.295,1.776,1.349,2.838,4.026,6.416,2.417,3.231,3.62,4.886,3.334,6.857-.223,1.544-1.153,1.92-.943,3.272.3,1.953,2.637,3.713,3.837,3.208.632-.266.846-1.118.944-1.51a5.741,5.741,0,0,0-.629-3.837c-.349-.735-3.126-6.588-1.447-9.625,1-1.809,3.674-2.789,5.158-2.076,1.314.631.843,2.178,2.391,4.026,1.69,2.018,3.089,1.171,5.095,2.894,2.71,2.327,1.281,4.835,4.089,7.549,1.563,1.51,4.154,2.808,5.662,1.95.716-.408,1-1.446,1.573-3.523.725-2.637,1.087-3.955.692-5.347-.565-1.986-2.039-1.71-2.894-3.963-1.012-2.667-.884-6.209.315-6.669.67-.256,1.746.423,2.138,1.258.5,1.071-.421,1.75-.251,3.209a4.437,4.437,0,0,0,3.271,3.648c1.612.272,2.836-1.04,3.4-.5.362.348-.039,1-.063,1.95-.058,2.336,2.214,4.886,3.586,4.656,1.531-.258,2.072-4,2.453-3.9.318.081-.621,2.538.566,4.026a3.992,3.992,0,0,0,3.067,1.148,6.573,6.573,0,0,0,4.53-2.17c2.533-2.549,1.507-4.7,3.161-5.614,2.88-1.587,8.025,3.824,9.672,2.359.33-.294.362-.935.425-2.218.109-2.23-.5-2.875-.425-4.765.059-1.428.5-3.287,1.132-3.35.787-.078,1.015,2.706,2.69,3.208,1.1.329,1.808-.625,3.114-1.132,4.261-1.654,9.732,3.977,12.6,2.736a9.266,9.266,0,0,0,1.344-.741,7.467,7.467,0,0,0,1.277-1.1C1414.988,5312.732,1415.546,5310.827,1416.95,5310.2Z" fill="#ebebeb"/>
        <path id="Path_63" data-name="Path 63" d="M1372.36,5066.3a11.852,11.852,0,0,0-4.925-3.122A11.852,11.852,0,0,0,1372.36,5066.3Z" fill="#ebebeb"/>
        <path id="Path_64" data-name="Path 64" d="M1352.572,5089.876c.577.738,1.111,1.369,1.414,1.739A11.658,11.658,0,0,0,1352.572,5089.876Z" fill="#ebebeb"/>
        <path id="Path_65" data-name="Path 65" d="M1440.867,5030.064c.718,1.527-.707,2.64,0,4.246a3.533,3.533,0,0,0,3.4,1.982c2.212-.27,3.548-3.547,3.114-5.945a6.848,6.848,0,0,0-2.076-3.4c-1.409-1.567-2.74-3.047-4.435-2.831-1.728.221-3.318,2.141-3.019,3.4S1440.12,5028.474,1440.867,5030.064Z" fill="#ebebeb"/>
        <path id="Path_66" data-name="Path 66" d="M1446.435,5021.666c1.149.746.17,2.677,1.321,3.586.819.646,2.35.251,5.378-.567,2.551-.688,2.8-1.02,3.4-.755,1.594.706.732,3.435,3.019,5.473.213.19,1.546,1.348,2.454.944.568-.253.4-.868,1.038-1.6,1.026-1.191,2.342-.607,3.113-1.6a2.472,2.472,0,0,0-.188-3.114c-1.135-.791-3.555,1.1-3.869.66-.285-.4,1.655-2.036,1.321-2.547-.3-.464-1.993.729-3.208,0-.916-.55-.544-1.581-1.51-2.171-.781-.476-1.781-.263-3.02,0-1.507.321-2.05.813-2.642.472a1.45,1.45,0,0,1-.66-1.415c.246-1.325,2.853-1.011,3.585-2.454.8-1.578-1.2-4.156-2.359-5.284-.358-.35-3.07-2.918-6.6-2.454-.667.088-2.44.321-3.208,1.6-.535.892-.028,1.365-.095,3.208-.059,1.621-.49,2.327-1.321,6.794-.089.479-.167.931.094,1.227C1443.173,5022.46,1445.21,5020.871,1446.435,5021.666Z" fill="#ebebeb"/>
        <path id="Path_67" data-name="Path 67" d="M1454.361,5032.612c-.258.182-.286.5-.283,1.887.007,3.313.17,3.959.283,4.341.194.653.645,2.176,1.227,2.17.609-.006,1.033-1.689,1.321-2.831.5-1.992.842-3.343.094-4.435C1456.339,5032.775,1454.947,5032.2,1454.361,5032.612Z" fill="#ebebeb"/>
        <path id="Path_68" data-name="Path 68" d="M1458.041,5010.908a1.7,1.7,0,0,0,.566-1.7c-.158-.556-.6-.629-1.415-1.321-1.379-1.173-1.383-2.049-2.076-2.076-.667-.026-1.288.762-1.51,1.415a2.733,2.733,0,0,0,.472,2.359C1454.995,5010.918,1457.049,5011.676,1458.041,5010.908Z" fill="#ebebeb"/>
        <path id="Path_69" data-name="Path 69" d="M1449.643,5032.706c.136.78.849,1.535,1.321,1.416.859-.218,1.157-3.391.472-3.681C1450.933,5030.229,1449.409,5031.363,1449.643,5032.706Z" fill="#ebebeb"/>
        <path id="Path_70" data-name="Path 70" d="M1472.573,5016.57a2.154,2.154,0,0,0,2.548-1.227c.491-1.37-1.394-3.03-2.454-3.963-.651-.573-1.817-1.458-2.075-1.226s.688,1.16,1.226,3.019C1472.4,5015.174,1471.921,5016.192,1472.573,5016.57Z" fill="#ebebeb"/>
        <path id="Path_71" data-name="Path 71" d="M1462.476,5019.118c.94-.082,2.08-.7,2.171-1.51.125-1.113-1.737-2.488-3.4-2.265-.809.109-1.868.638-1.982,1.416C1459.108,5017.853,1460.845,5019.261,1462.476,5019.118Z" fill="#ebebeb"/>
        <path id="Path_72" data-name="Path 72" d="M1467.1,5011.286c.685-.271,1.127-2.358-.094-3.586-1.049-1.055-2.847-1-3.209-.377C1463.2,5008.344,1466.051,5011.7,1467.1,5011.286Z" fill="#ebebeb"/>
        <path id="Path_73" data-name="Path 73" d="M1295.486,5063.217a9.023,9.023,0,0,0,.787-2.99A9.066,9.066,0,0,0,1295.486,5063.217Z" fill="#ebebeb"/>
        <path id="Path_74" data-name="Path 74" d="M1288.566,5090.393c1.473-.282,1.231-2.359,4.026-4.152,1.564-1,2.6-.967,3.02-2.013.591-1.459-.778-3.112-.252-3.523.452-.353,1.411.9,2.643.629a2.415,2.415,0,0,0,1.761-2.264c-.063-1.044-1.178-1.19-1.51-2.265-.574-1.862,1.8-4.577,2.642-4.278.953.337-.733,4.25,1.133,5.788,1.373,1.132,3.941.374,5.284-.378a3.842,3.842,0,0,0,2.013-2.013c.486-1.519-.7-2.911-.252-3.271.491-.391,1.794,1.324,3.523,1.006a2.189,2.189,0,0,0,1.51-1.006c.3-.651-.1-1.213-.377-2.265-.582-2.2.316-2.97-.252-3.774-1.19-1.685-6.07.36-6.291-.252-.162-.45,2.161-2.416,4.781-2.265,1.47.085,2.075.781,2.894.378,1.277-.629.466-2.644,1.636-3.775,1.875-1.812,5.919,1.472,8.429-.377,1.616-1.19,1.749-3.882,1.259-4.152-.544-.3-1.72,2.446-4.027,2.642-1.66.141-3.645-1.061-3.648-2.139-.006-1.909,6.216-1.98,7.549-5.913a9.154,9.154,0,0,0,.126-2.642c-.04-5.632-.06-8.448-1.007-9.059-1.5-.97-4.368.761-9.562,3.9-1.868,1.129-2.143,1.448-3.9,2.391a61.28,61.28,0,0,1-6.417,2.894c-2.926,1.151-5.117,1.829-5.033,2.39.072.475,1.715.477,1.762,1.007.04.457-1.183.5-1.51,1.258-.565,1.3,2.372,2.781,2.39,5.536.007,1-.37,1.886-.629,1.887-.356,0-.228-1.685-1.258-2.391a2.979,2.979,0,0,0-2.894.126,4.6,4.6,0,0,0-1.855,2.169,9.023,9.023,0,0,1-.787,2.99,9.066,9.066,0,0,1,.787-2.99,7.887,7.887,0,0,0-.09-2.252,6.49,6.49,0,0,0-.571-1.678c-.223-.445-1.524-3.035-3.4-2.894a2.324,2.324,0,0,0-1.887,1.258c-.543,1.224.545,2.717.251,2.894-.258.156-.879-1.136-1.761-1.132-1.423.005-2.352,3.377-2.39,3.522-.144.538-.865,3.239.251,4.027.81.571,2.049-.246,2.391.251.385.561-1.1,1.737-.755,2.517.475,1.078,3.939.236,4.026.629.079.354-2.558,1.912-5.536,1.509-2.119-.286-3.152-1.4-3.523-1.006-.491.515.767,3.04,2.894,4.655,1.25.949,1.62.687,3.019,1.636a9.489,9.489,0,0,1,3.775,4.655c-.1.08-1.389-1.76-1.887-1.51-.584.293.577,3.125-.126,3.523-.589.333-1.646-1.512-2.768-1.258-1.371.31-1.054,3.351-2.768,4.026-1.257.5-2.378-.766-2.768-.378C1281.821,5084.05,1285.774,5090.927,1288.566,5090.393Z" fill="#ebebeb"/>
        <path id="Path_75" data-name="Path 75" d="M1314.988,5147.388c.209.974,2.569,1.777,4.152,1.006,1.28-.623.883-1.707,2.39-3.145,1.789-1.706,3.378-.9,4.278-2.642.524-1.017.386-1.964,1.258-2.642s1.568-.142,2.642-.629c2.115-.961,3.03-4.693,2.013-5.662-.251-.24-.426-.124-1.258-.377-1.53-.466-1.736-1.1-2.642-1.385-1.693-.53-2.442,1.228-4.152.881-1.619-.328-1.4-2-3.271-2.768-2.085-.859-4.126.48-4.655-.377-.348-.564.49-1.218.126-2.139-.39-.984-1.569-.8-1.888-1.636-.395-1.033,1.257-1.719,1.384-3.523.108-1.527-1.011-1.955-.88-3.522.093-1.121.7-1.356,1.384-2.643.857-1.622.488-2.389.88-7.8.243-3.353.39-3.135.252-3.649-.774-2.877-3.769-3.681-3.649-6.039.05-.983.6-1.432.252-2.139a2.183,2.183,0,0,0-2.768-.881c-.441.324-.279.824-.5,1.636-.645,2.334-3.162,2.474-3.272,4.026-.1,1.392,1.865,2.179,1.51,3.146-.3.805-1.748.508-2.013,1.258-.4,1.141,2.7,2.566,2.391,4.4a6.1,6.1,0,0,0-.378,1.762c.007.761.236,1.2.126,1.258-.216.112-.955-1.655-2.642-3.146-1.159-1.023-1.415-.724-2.894-1.887a10.983,10.983,0,0,1-2.894-3.145c-1.159-2-.927-3.452-1.509-3.523-.65-.079-1.762,1.623-1.762,3.4,0,2.347,1.946,4.131,1.636,4.4-.246.214-1.3-1.037-1.888-.755-.982.472.168,4.871,0,4.906a14.441,14.441,0,0,0-1.761-3.9c-.558-.771-1.641-2-2.139-1.761-.779.366.331,4.089-.252,4.278-.266.086-.508-.691-1.132-.755a2.2,2.2,0,0,0-1.887,2.264c.132.841,1.039.835,1.887,2.013s.405,1.832,1.007,3.02c1,1.968,3.782,3.26,5.032,2.516,1.177-.7.606-2.97,1.384-3.145s1.152,2.139,3.523,3.523c1.087.634,1.859.645,2.139,1.384a1.906,1.906,0,0,1-.881,2.264c-1.224.424-2.528-2.1-3.271-1.761-1.007.458-.485,5.95,2.013,6.92,1.293.5,2.792-.334,3.02.126.275.554-1.929,1.738-1.636,2.768.252.883,2.265,1.384,2.265,1.384a16.055,16.055,0,0,0,2.516.88c2.1.45,2.815-.754,3.9-.251,1.748.81,1.411,4.643,2.013,4.655.536.011.523-3.039,2.138-3.649.328-.123.62-.108,1.636.126,2.483.572,4.544,1.047,4.529,1.636-.02.839-4.232.478-5.158,2.642-.447,1.045.357,1.546,0,3.019C1317.081,5145.883,1314.768,5146.364,1314.988,5147.388Z" fill="#ebebeb"/>
        <path id="Path_76" data-name="Path 76" d="M1321.908,5114.047c-.6-.284-2.145,1.461-3.02,3.019-1.343,2.393-1.235,4.573-1.132,6.668.062,1.264.23,1.648.5,1.762.6.251,1.882-.76,2.265-2.013s-.465-1.666-.252-3.146c.209-1.451,1.1-1.542,1.636-3.4C1322.212,5115.9,1322.408,5114.282,1321.908,5114.047Z" fill="#ebebeb"/>
        <path id="Path_77" data-name="Path 77" d="M1320.744,5126.094a1.356,1.356,0,0,0-.849.534,1.67,1.67,0,0,0-.063,2.045,1.864,1.864,0,0,0,2.736-.629C1322.806,5127.208,1321.695,5125.973,1320.744,5126.094Z" fill="#ebebeb"/>
        <path id="Path_78" data-name="Path 78" d="M1323.009,5112.348c.7.079,1.687-1.739,1.667-3.46,0-.35-.019-1.539-.472-1.667-.676-.19-2.4,1.96-1.982,3.869C1322.248,5111.206,1322.493,5112.29,1323.009,5112.348Z" fill="#ebebeb"/>
        <path id="Path_79" data-name="Path 79" d="M1306.495,5146.79c.063-1.128-2.191-2.644-4.388-2.5-1.561.1-3.389,1.063-3.774,2.548-.153.587-.006.975.708,2.925,1.494,4.084,1.568,4.345,1.981,4.529,1.961.872,5.744-2.588,5.285-3.963-.222-.664-1.365-.64-1.463-1.321C1304.721,5148.159,1306.442,5147.751,1306.495,5146.79Z" fill="#ebebeb"/>
        <path id="Path_80" data-name="Path 80" d="M1308.335,5159.482a2.393,2.393,0,0,0,1.793-.944c1.286-1.49,1.194-4.321.047-4.906-1.21-.619-4,1.059-4.01,3.114A2.756,2.756,0,0,0,1308.335,5159.482Z" fill="#ebebeb"/>
        <path id="Path_81" data-name="Path 81" d="M1281.332,5180.163c1.832-.883,1.5-1.544,2.894-2.013,1.76-.591,2.442.41,3.9-.251,1.141-.518.868-1.2,2.391-2.58,1.841-1.673,3.3-1.642,3.4-2.642a1.866,1.866,0,0,0-1.259-1.7c-.865-.313-1.8.181-3.271,1.258-3.118,2.284-3.13,3.157-5.347,4.718a20.422,20.422,0,0,1-5.473,2.453c-1.46.514-2.26.687-3.083.378-1.094-.411-1.241-1.305-2.2-1.384a2.2,2.2,0,0,0-2.2,1.572c-.084.528.282.615.44,1.51.19,1.074-.266,1.362-.063,2.328a2.916,2.916,0,0,0,.881,1.573c.83.73,2.253.989,2.768.44s-.277-1.538.252-2.139c.629-.716,2.219.162,2.768-.566.3-.405-.111-.777.125-1.384C1278.591,5180.858,1279.733,5180.934,1281.332,5180.163Z" fill="#ebebeb"/>
        <path id="Path_82" data-name="Path 82" d="M1315.743,5187.209c-2.8-1.229-3.149-1.119-3.838-1.887-1.809-2.02-.56-4.049-2.327-6.606-1.2-1.74-3.471-3.244-4.97-2.7-1.385.5-1.175,2.406-2.768,2.957-1.532.53-3.226-.716-3.46-.315-.217.374,1.29,1.388,1.007,2.076-.194.47-1.006.263-1.384.818a2.07,2.07,0,0,0,.377,2.2c1.234,1.486,3.641.179,4.718,1.51.831,1.027-.209,2.293.566,3.145,1.286,1.412,5.509-.566,5.6-.314.062.172-1.952,1.054-4.089,2.138-3.942,2-4.431,2.728-4.592,3.4a3.067,3.067,0,0,0,1.006,2.957c2.182,1.722,6.769-1.035,6.92-.692.1.232-1.776,2.008-4.529,2.328-2.525.293-3.427-.912-7.3-1.007-1.8-.044-3.153-.058-3.712.818-.639,1,.027,2.745,1.069,3.649a4.647,4.647,0,0,0,3.523.818,10.506,10.506,0,0,0,3.083-.881c3.128-1.008,4.1.882,7.36.377,3.444-.533,5-3.055,6.228-2.264.991.637.193,2.406,1.195,3.019,1.357.831,4.9-1.141,5.222-3.4.155-1.1-.5-1.943,0-2.453.594-.6,1.853.241,2.516-.441.235-.241.162-.435.44-1.887.209-1.089.294-1.205.315-1.447C1324.115,5190.879,1317.961,5188.181,1315.743,5187.209Z" fill="#ebebeb"/>
        <path id="Path_83" data-name="Path 83" d="M1302.422,5189c.41-.327.06-1.976-1.038-2.705-1.13-.751-2.847-.389-2.988.141s1.184,1.279,2.264,1.9C1301.6,5188.882,1302.162,5189.209,1302.422,5189Z" fill="#ebebeb"/>
        <path id="Path_84" data-name="Path 84" d="M1338.673,5248.324c.221.176,1.664,1.322,2.548.85,1.4-.748.683-5.161-.755-8.3-1.018-2.226-2.819-4.731-3.586-4.435-.313.12-.39.681-.378,2.17C1336.545,5243.793,1336.569,5246.653,1338.673,5248.324Z" fill="#ebebeb"/>
        <path id="Path_85" data-name="Path 85" d="M1335.748,5252.476a5.7,5.7,0,0,0-5.473-3.491c-3.371.218-5.545,4.231-5.473,7.171.04,1.664.769,1.747,1.509,4.247,1.419,4.792-.565,6.839,1.038,8.964a5.96,5.96,0,0,0,7.266,1.321c2.428-1.436,3.36-5.027,2.359-6.133-.583-.646-1.686-.291-1.887-.85-.315-.873,2.275-2.018,2.076-3.491-.086-.641-.615-.711-1.132-1.415C1334.646,5256.912,1336.484,5254.75,1335.748,5252.476Z" fill="#ebebeb"/>
        <path id="Path_86" data-name="Path 86" d="M1310.364,5246.248c-1.1,1.544-.678,3.719-.094,3.869.951.246,3.51-4.584,2.736-5.284C1312.593,5244.459,1311.129,5245.175,1310.364,5246.248Z" fill="#ebebeb"/>
        <path id="Path_87" data-name="Path 87" d="M1317.724,5215.392c-.477-.318-1.593,1.2-4.246,2.831-2.293,1.41-2.715,1.049-4.718,2.359-1.527,1-4.444,3.277-3.963,4.529.318.828,2.045,1.009,3.019.944a6.343,6.343,0,0,0,2.265-.661c.03.063-3.051,1.575-6.039,3.3-3.261,1.885-3.695,2.457-3.963,2.925-1.132,1.972-1.08,5.168.849,6.794.909.767,2.618,1.508,3.68.849,1.59-.986.564-4.39,2.17-5.1.646-.283.984.191,1.7,0,1.622-.435,1.357-3.276,2.642-6.417,1.6-3.914,3.84-3.962,5.945-9.058C1317.3,5218.124,1318.276,5215.759,1317.724,5215.392Z" fill="#ebebeb"/>
        <path id="Path_88" data-name="Path 88" d="M1299.512,5212.655c-1.114-.679-5.829,3.592-5.095,5.473.323.829,1.69,1.158,2.642.944C1299.739,5218.47,1300.506,5213.261,1299.512,5212.655Z" fill="#ebebeb"/>
        <path id="Path_89" data-name="Path 89" d="M1294.889,5222.28c.248-.252.119-1-.378-1.321a1.154,1.154,0,0,0-1.6.566C1292.9,5222.024,1294.489,5222.685,1294.889,5222.28Z" fill="#ebebeb"/>
        <path id="Path_90" data-name="Path 90" d="M1319.643,5209.73a1.869,1.869,0,0,0,2.139,1.007c1.386-.406,1.6-3.081,1.824-5.945.176-2.225-.129-2.521-.314-2.611-.532-.259-1.628.419-1.7,1.132-.073.738,1.008.921,1.195,1.762C1323.166,5206.767,1319.289,5208.291,1319.643,5209.73Z" fill="#ebebeb"/>
        <path id="Path_91" data-name="Path 91" d="M1290.831,5250.872c.834-.823,2.117-.06,3.586-.283,2.353-.357,4.186-3.093,4.718-5.284.477-1.966-.068-3.6-1.038-6.511-1.22-3.661-2.31-4.249-1.982-6.04.427-2.325,2.638-3.355,2.171-4.34-.324-.683-1.694-.837-2.737-.661-4,.677-5.815,6.661-6.7,6.323-.726-.278.565-4.286-.377-4.719-.561-.257-1.272,1.049-3.774,3.209-2.309,1.992-3.62,2.534-3.586,3.68.028.95.943,1.04,1.132,2.076.405,2.216-3.367,4.083-2.925,5,.3.631,2.549.714,4.152-.377,2-1.364,1.572-3.589,3.586-4.53,1.017-.475,2.307-.458,2.547,0,.428.816-2.8,2.392-2.547,4.341.215,1.652,2.762,2.252,2.547,3.208-.18.8-1.989.411-3.114,1.7a3.574,3.574,0,0,0-.094,4.529,2.907,2.907,0,0,0,3.586.472C1290.587,5252.134,1290.24,5251.456,1290.831,5250.872Z" fill="#ebebeb"/>
        <path id="Path_92" data-name="Path 92" d="M1255.791,5146.067c.409-.536-.59-1.528-.126-2.2.32-.464.908-.162,1.825-.629a4.777,4.777,0,0,0,1.635-1.761c.856-1.219,1.412-2.01,1.133-2.58-.26-.53-.947-.257-1.573-.88-.908-.9-.563-2.569-.755-2.58-.159-.008-.028,1.156-.755,1.888s-1.553.3-2.013.943c-.473.665.286,1.295-.063,2.454-.278.925-.859.846-1.51,2.013-.279.5-1.057,1.9-.44,2.831C1253.737,5146.454,1255.382,5146.6,1255.791,5146.067Z" fill="#ebebeb"/>
        <path id="Path_93" data-name="Path 93" d="M1262.082,5131.912c1.052,1.665,3.416,2.613,4.341,1.951a1.459,1.459,0,0,0,.377-1.762c-.389-.586-1.3-.162-1.887-.818a1.553,1.553,0,0,1-.063-1.95c.291-.251.579-.026,1.007-.188.88-.335,1.433-1.963,1.069-3.209-.434-1.482-2.088-2.151-1.95-2.39s1.81.86,2.642.251c.48-.351.153-.887.629-2.013.591-1.4,1.426-1.353,1.51-2.327.059-.692-.348-.864-.441-2.2-.046-.678.052-.722,0-1.07-.181-1.213-1.516-1.577-2.705-2.642-1.9-1.706-2.131-4.046-2.39-3.963-.179.057.1,1.117.251,2.391.17,1.418.6,5.015-1.006,7.926-.923,1.674-1.746,1.721-2.139,3.334-.205.844-.073,1.213.126,3.334C1261.839,5130.681,1261.5,5131,1262.082,5131.912Z" fill="#ebebeb"/>
        <path id="Path_94" data-name="Path 94" d="M1271.644,5108.007c.116-.679-1.62-2.15-3.334-1.761a2.909,2.909,0,0,0-2.17,2.3c-.267,1.71,1.471,2.958,2.39,3.617.973.7,2.241,1.219,2.548.881.2-.22-.181-.612-.094-1.573.055-.614.228-.654.188-1.1-.065-.725-.547-.893-.472-1.352C1270.793,5108.448,1271.572,5108.432,1271.644,5108.007Z" fill="#ebebeb"/>
        <path id="Path_95" data-name="Path 95" d="M1264.881,5096.464c.525.688.134,1.253.6,1.7.547.525,1.3-.061,2.3.283a3.775,3.775,0,0,1,1.887,2.2c1.016,2.1.32,3.208,1.259,3.963.543.438.844.12,2.736.378,2.411.329,3.106,1.007,3.712.535.771-.6.559-2.41.031-2.611-.459-.175-1.094.891-1.635.66-.3-.129-.2-.5-.5-.88-.672-.837-2.129-.169-2.485-.724-.44-.687,1.146-2.727,1.7-2.516.292.111.021.745.44,1.384a2.571,2.571,0,0,0,3.46.6,1.728,1.728,0,0,0,.441-1.981c-.346-.533-1.017-.26-1.51-.787-.729-.776-.388-2.563.157-2.705.6-.155,1.018,1.78,2.516,2.045a1.792,1.792,0,0,0,1.888-.724c.329-.8-.733-2.2-1.95-2.547-1.054-.3-1.846.307-2.139-.063-.426-.536,1.11-1.967.692-2.579-.361-.527-1.991-.19-3.146.377-1.242.609-1.229,1.139-1.981,1.227-1.422.166-2.056-1.653-3.335-1.447-1.131.182-1.712,1.781-2.076,1.6-.257-.126.133-.884-.283-1.51a1.561,1.561,0,0,0-1.855-.566c-.618.4-.005,1.44-.724,2.422-.607.83-1.6.849-1.573,1.258C1263.523,5095.829,1264.34,5095.754,1264.881,5096.464Z" fill="#ebebeb"/>
        <path id="Path_96" data-name="Path 96" d="M1296.744,5143.362a2.155,2.155,0,0,0-.5-2.831c-1.348-1.014-3.64.437-3.649,1.321C1292.582,5142.9,1295.8,5144.294,1296.744,5143.362Z" fill="#ebebeb"/>
        <path id="Path_97" data-name="Path 97" d="M1287.56,5078.818a1.875,1.875,0,0,0-.189-2.642c-.927-.438-3.078,1.5-2.768,2.39A2,2,0,0,0,1287.56,5078.818Z" fill="#ebebeb"/>
        <path id="Path_98" data-name="Path 98" d="M1277.117,5089.953a1.11,1.11,0,0,0,1.258.5c1.013-.315,1.113-2.53.629-2.768C1278.5,5087.438,1276.756,5089.084,1277.117,5089.953Z" fill="#ebebeb"/>
        <path id="Path_99" data-name="Path 99" d="M1278.186,5086.43a1.369,1.369,0,0,0,.378-1.95,1.5,1.5,0,0,0-2.076.692A1.436,1.436,0,0,0,1278.186,5086.43Z" fill="#ebebeb"/>
        <path id="Path_100" data-name="Path 100" d="M1283.785,5090.959c.516-.119.987-.708.881-1.132-.192-.772-2.31-1.058-2.579-.566C1281.849,5089.695,1282.812,5091.184,1283.785,5090.959Z" fill="#ebebeb"/>
        <path id="Path_101" data-name="Path 101" d="M1301.274,5083.284a1.284,1.284,0,0,0-1.762-.817,1.083,1.083,0,0,0-.5,1.006,1.129,1.129,0,0,0,.881,1.007A1.229,1.229,0,0,0,1301.274,5083.284Z" fill="#ebebeb"/>
        <path id="Path_102" data-name="Path 102" d="M1257.616,5101.4c.389-.153.794-.553.754-.944-.074-.736-1.713-1.348-2.264-.817a1.08,1.08,0,0,0-.063,1.195A1.28,1.28,0,0,0,1257.616,5101.4Z" fill="#ebebeb"/>
        <path id="Path_103" data-name="Path 103" d="M1252.583,5151.508a1.074,1.074,0,0,0,1.1-1.038,1.086,1.086,0,0,0-1.07-1.132,1.071,1.071,0,0,0-.943.975A1.083,1.083,0,0,0,1252.583,5151.508Z" fill="#ebebeb"/>
        <path id="Path_104" data-name="Path 104" d="M1251.293,5153.553a1.141,1.141,0,0,0-.566-1.447c-.71-.219-1.69.983-1.478,1.478A1.417,1.417,0,0,0,1251.293,5153.553Z" fill="#ebebeb"/>
        <path id="Path_105" data-name="Path 105" d="M1249.563,5156.478c.108.464,1.745.822,2.171.157a1.007,1.007,0,0,0-.283-1.258C1250.784,5154.97,1249.455,5156.012,1249.563,5156.478Z" fill="#ebebeb"/>
        <path id="Path_106" data-name="Path 106" d="M1253.306,5147.168a1.48,1.48,0,0,0,1.7,1.384,1.379,1.379,0,0,0,.723-1.825C1255.272,5146.1,1253.463,5146.5,1253.306,5147.168Z" fill="#ebebeb"/>
        <path id="Path_107" data-name="Path 107" d="M1263.749,5134.618a1.01,1.01,0,0,0-.849,1.1.957.957,0,0,0,.975.692,1.069,1.069,0,0,0,.944-1.289A.977.977,0,0,0,1263.749,5134.618Z" fill="#ebebeb"/>
        <path id="Path_108" data-name="Path 108" d="M1262.145,5137.826a.848.848,0,0,0-.6-1.1c-.391-.034-.785.351-.755.629C1260.839,5137.786,1261.919,5138.1,1262.145,5137.826Z" fill="#ebebeb"/>
        <path id="Path_109" data-name="Path 109" d="M1305.363,5162.266a1.668,1.668,0,0,0,.755-2.218c-.6-.716-2.975.023-3.067.85A1.807,1.807,0,0,0,1305.363,5162.266Z" fill="#ebebeb"/>
        <path id="Path_110" data-name="Path 110" d="M1290.957,5195.953c-1.077.5-.909,2.522-.378,2.768.614.284,2.427-1.47,2.076-2.327A1.374,1.374,0,0,0,1290.957,5195.953Z" fill="#ebebeb"/>
        <path id="Path_111" data-name="Path 111" d="M1318.621,5211.145c-.806-.439-2.5.651-2.406,1.7a1.454,1.454,0,0,0,.9,1.085,1.572,1.572,0,0,0,1.651-.236A1.753,1.753,0,0,0,1318.621,5211.145Z" fill="#ebebeb"/>
        <path id="Path_112" data-name="Path 112" d="M1330.7,5190.055c1.405-1.684,2.4-3.594,2.218-3.727s-1.759,1.72-2.454,2.548c-.947,1.13-2.947,3.63-2.736,3.822C1327.893,5192.849,1329.442,5191.563,1330.7,5190.055Z" fill="#ebebeb"/>
        <path id="Path_113" data-name="Path 113" d="M1544.194,4902.49c-2.574.09-3.983,6.181-4.371,7.858-.672,2.9-1.47,6.356.263,7.594a3.909,3.909,0,0,0,4.97-1.1c.8-1.365-.648-2.359-.464-4.913.248-3.425,3.06-4.437,2.514-6.786A3.419,3.419,0,0,0,1544.194,4902.49Z" fill="#ebebeb"/>
        <path id="Path_114" data-name="Path 114" d="M1553.726,4894.754c-2.225.028-4.073,3.091-4.4,5.681-.249,1.954.256,4.521,1.375,4.769.8.178,1.911-.837,2.345-1.928.656-1.647-.587-2.55-.015-4.049.707-1.852,3.161-1.935,3.114-2.985C1556.109,4895.5,1554.852,4894.74,1553.726,4894.754Z" fill="#ebebeb"/>
        <path id="Path_115" data-name="Path 115" d="M1539.989,4926.216c-.657-.637-1.456.056-2.577-.529-1.905-.993-1.679-4.074-2.52-4.121-.651-.037-.779,1.8-1.9,3.042a10.132,10.132,0,0,1-.664-4,13.526,13.526,0,0,1,1.274-4.525c1.391-3.481,2.516-4.216,2.077-5.353-.49-1.269-2.521-1.978-4.1-1.573-1.983.506-2.969,2.683-3.073,4.224-.12,1.758.893,2.885.407,3.325-.584.53-2.035-1.107-3.733-.7-1.6.387-2.859,2.46-2.4,3.3.623,1.144,3.989-.781,6.121,1.021.783.661.514,1.076,1.89,3.091a21.46,21.46,0,0,0,1.413,1.844c-1.655.932-3.732.095-3.818.445-.106.436,3.269,1.152,3.369,2.585.035.5-.362.568-.977,1.712-.892,1.659-.662,2.633-1.265,2.849s-.975-.681-2.04-1.081c-1.862-.7-3.022,1.162-5.554,1.344-3.011.215-4.766-2.173-5.529-1.466-.594.551-.112,2.542,1.08,3.881,2.318,2.6,6.538,1.863,6.729,3.146.1.69-1.115.907-1.513,2.265-.422,1.439.278,3.471,1.384,3.833,2.156.705,5.732-4.983,6.29-4.576.259.189-.634,1.315-.584,3.209.036,1.369.522,1.507.559,2.561.081,2.254-2.105,2.715-2.473,5.065-.328,2.094,1.288,2.5,1.047,4.665-.265,2.37-2.3,2.645-2.954,4.985-.926,3.291,1.823,7.242,2.824,7.034.886-.184-.512-3.6,1.786-7.449,1.228-2.057,2.448-2.64,2.849-4.657.5-2.487-1.081-2.99-.863-5.474.337-3.844,4.336-5.182,3.739-7.913-.341-1.558-1.822-1.95-1.568-3.025.308-1.309,2.535-.878,3.945-2.648.794-1,.334-1.44,1.01-5.458C1540.18,4928.046,1540.683,4926.889,1539.989,4926.216Z" fill="#ebebeb"/>
      </g>
      <g id="Group_72" data-name="Group 72">
        <path id="Path_116" data-name="Path 116" d="M1536.276,5592.771c-1.42-.664-2.7-1.75-4.737-1.579a4.673,4.673,0,0,0-3.455,1.579c-.786,1.125-.26,2.116-.4,3.849-.237,3.068-2.4,6.587-4.441,6.712-2.194.134-3.525-3.681-5.527-3.158-.995.259-1.341,1.377-2.566,1.381a2.752,2.752,0,0,1-1.678-.69c-2.7-1.981-2.435-4.8-4.244-5.232-.993-.234-1.625.486-2.27,0-.664-.5-.351-1.527-.494-2.467-.5-3.27-6.168-3.179-7.007-6.218-.674-2.438,2.542-4.07,1.579-7.205a17.022,17.022,0,0,1-.987-2.566,11.469,11.469,0,0,1,0-3.849,12.577,12.577,0,0,0-1.283-5.824c-2.06-4.189-6.121-3.986-6.712-7.4-.2-1.164.026-2.6.691-2.862,1.38-.538,3.687,4.379,5.626,3.849.883-.241,1.491-1.558,1.481-2.665-.03-3.073-4.827-3.659-5.034-6.514s4.392-5.278,3.454-7.7a2.576,2.576,0,0,1-.394-1.382c.125-1.1,1.308-1.368,1.974-2.369.395-.595.588-1.417-.1-4.54a42.711,42.711,0,0,0-1.29-4.6,1.211,1.211,0,0,1-.191.158c-.754.482-1.4-.252-2.566.2-1.318.506-1.235,1.717-2.369,2.764-2.086,1.926-5.469.686-5.724,1.579-.234.82,2.738,1.471,3.356,3.75a4.167,4.167,0,0,1-2.172,4.738,3.616,3.616,0,0,1-3.948-.79c-1.34-1.567.175-3.794-.987-4.737-1.035-.841-3.377,0-4.737,1.184-.806.7-.683,1.016-1.974,2.764-1.415,1.915-2.123,2.872-3.158,3.158a4.558,4.558,0,0,1-4.541-1.974c-1.741-2.485-.085-5.571,0-5.725.862-1.545,1.876-1.562,2.369-2.566.47-.955.316-2.5-1.562-5.136-.79.328-1.706.088-2.188.794-.575.839.342,1.741-.2,2.566-.584.892-1.976.322-3.553.987-1.093.461-1.731,1.432-2.961,3.355-2.28,3.565-1.99,4.658-3.75,6.317a10.776,10.776,0,0,1-1.9,1.446c.188,3.265-.656,4.935-1.593,5.858-.724.713-1.087.576-1.842,1.447-1.9,2.2-1.7,5.5-1.579,7.5.147,2.406.62,2.741.263,4.212s-.94,1.593-1.579,3.553c-.447,1.37-.959,2.937-.263,4.211.524.959,1.161.705,2.1,1.711,1.332,1.419.572,2.468,1.711,5.132,1.042,2.437,2.267,2.936,1.974,4.211s-1.589,1.194-1.842,2.369c-.382,1.771,2.406,2.689,2.368,5-.023,1.432-1.1,1.435-1.447,3.553-.306,1.858.384,2.694-.264,3.421s-1.615.183-3.158.658a6.43,6.43,0,0,0-3.421,2.9c-1.054,1.84-.449,3.522.131,7.238.794,5.082,1.432,9.167,0,10-1.188.692-2.674-1.511-7.632-2.764-1.909-.482-4.3-1.086-5.133,0-.73.953-.177,3.094,1.053,4.08,1.12.9,2.321.454,2.764,1.316.434.846-.586,1.541-.264,2.763.318,1.2,1.472,1.157,1.974,2.237.714,1.535-.982,2.99-1.316,5-.21,1.267.075,3.073,2.1,5.525l.042,0c2.76.354,3.815,3.009,5.285,2.548,1.384-.435.931-2.944,2.642-3.586,1.167-.438,1.846.555,3.4,0,1.045-.374,1.01-.922,2.076-1.227,1.374-.392,2.01.356,2.736-.094.887-.548.947-2.282.661-3.491-.6-2.553-2.972-3.7-2.642-4.247.255-.426,1.786.064,2.359.284a4.6,4.6,0,0,1,2.642,2.075c.532,1.115-.121,1.534.189,2.737.522,2.026,2.945,3.04,5.378,4.058.863.361,2.833,1.184,3.209.66.432-.6-1.614-2.488-1.133-3.114.21-.273.756-.115,1.6,0a27.856,27.856,0,0,0,3.681,0c2.344.066,3.9.11,5.378,1.038,1.577.992,2.434,2.6,2.171,2.925-.228.281-1.2-.516-2.36-.094-.1.037-.909.33-1.038.849-.315,1.277,3.353,4.436,6.7,3.963,2.035-.287,2.028-1.644,4.813-2.736.976-.383,2.092-.653,6.888-.661,4.687-.007,4.455.25,7.36.189,4.77-.1,5.591-.795,9.531-.472a19.933,19.933,0,0,1,4.813.944,20.309,20.309,0,0,1,3.4,1.51c3.523,1.952,3.445,3.186,5.944,4.152a7.764,7.764,0,0,0,5.285.283,7.671,7.671,0,0,0,2.925-2.171c1.083-1.041,1.981-1.442,10.569-3.868,6.962-1.968,8.213-2.225,9.436-3.775.886-1.123,1.136-2.139,2.264-2.453,1.5-.417,2.342,1.018,5.568,1.7,1.258.266,2.881.586,3.774-.283.387-.376.469-.812.661-1.982.614-3.749.546-4.036.755-4.623.169-.477.609-1.4,4.246-3.4,3.291-1.807,5.139-2.263,9.531-4.435,2.387-1.181,3.1-1.667,3.68-2.548.286-.433.814-1.371.943-5.568.133-4.3-.373-4.921.284-6.7.877-2.379,2.369-2.862,2.075-3.775-.624-1.941-7.863-1.247-9.058-1.132a89.88,89.88,0,0,0-12.645,2.453c-2.787.708-6.516,1.741-7.549.283-.505-.713-.2-1.8-1.038-2.359-.522-.352-1.044-.2-2.076-.094-1.7.173-3.787.387-5.095-.566-.727-.529-1.51-1.635-1.227-2.454.548-1.586,4.661-.822,5.1-2.264.228-.754-.655-1.764-1.415-2.265-.372-.245-1.583-.942-6.888.094-2.111.412-2.986.731-3.114.472-.062-.124.063-.358.323-.645A12.146,12.146,0,0,1,1536.276,5592.771Z" fill="#ebebeb"/>
        <path id="Path_117" data-name="Path 117" d="M1465.826,5640.73c-1.452-.378-2.33.231-3.491-.566-.889-.61-1.116-1.476-1.7-1.415-.678.07-.787,1.287-1.368,1.321-.758.044-.951-2-1.934-2.218-1.429-.312-3.117,3.55-4.058,3.209-.539-.2-.089-1.5-.755-2.076-1.525-1.317-7.674,2.266-7.266,4.01.206.88,1.892.5,5.143,2.265a32.941,32.941,0,0,1,3.633,2.5c3.606,2.668,3.9,3.308,5.237,3.492a5.226,5.226,0,0,0,4.435-1.51c1.155-1.3.5-2.38,1.651-3.539,1.5-1.5,3.586-.668,3.964-1.651C1469.712,5643.525,1467.944,5641.282,1465.826,5640.73Z" fill="#ebebeb"/>
      </g>
    </g>
    <circle id="Ellipse_93" data-name="Ellipse 93" cx="4" cy="4" r="4" transform="translate(1508 5600)" fill="#004948"/>
    <circle id="Ellipse_94" data-name="Ellipse 94" cx="4" cy="4" r="4" transform="translate(1448 5611)" fill="#004948"/>
    <circle id="Ellipse_95" data-name="Ellipse 95" cx="4" cy="4" r="4" transform="translate(1424 5618)" fill="#004948"/>
    <circle id="Ellipse_96" data-name="Ellipse 96" cx="4" cy="4" r="4" transform="translate(1399 5596)" fill="#004948"/>
    <circle id="Ellipse_97" data-name="Ellipse 97" cx="4" cy="4" r="4" transform="translate(1428 5590)" fill="#004948"/>
    <circle id="Ellipse_98" data-name="Ellipse 98" cx="4" cy="4" r="4" transform="translate(1433 5425)" fill="#004948"/>
    <circle id="Ellipse_99" data-name="Ellipse 99" cx="4" cy="4" r="4" transform="translate(1442 5397)" fill="#004948"/>
    <circle id="Ellipse_100" data-name="Ellipse 100" cx="4" cy="4" r="4" transform="translate(1469 5411)" fill="#004948"/>
    <circle id="Ellipse_101" data-name="Ellipse 101" cx="4" cy="4" r="4" transform="translate(1454 5349)" fill="#004948"/>
    <circle id="Ellipse_102" data-name="Ellipse 102" cx="4" cy="4" r="4" transform="translate(1238 5363)" fill="#004948"/>
    <circle id="Ellipse_103" data-name="Ellipse 103" cx="4" cy="4" r="4" transform="translate(1193 5431)" fill="#004948"/>
    <circle id="Ellipse_104" data-name="Ellipse 104" cx="4" cy="4" r="4" transform="translate(1231 5440)" fill="#004948"/>
    <circle id="Ellipse_105" data-name="Ellipse 105" cx="4" cy="4" r="4" transform="translate(1225 5398)" fill="#004948"/>
    <circle id="Ellipse_106" data-name="Ellipse 106" cx="4" cy="4" r="4" transform="translate(1176 5473)" fill="#004948"/>
    <circle id="Ellipse_107" data-name="Ellipse 107" cx="4" cy="4" r="4" transform="translate(1500 5430)" fill="#004948"/>
    <circle id="Ellipse_108" data-name="Ellipse 108" cx="4" cy="4" r="4" transform="translate(1497 5622)" fill="#004948"/>
    <circle id="Ellipse_109" data-name="Ellipse 109" cx="4" cy="4" r="4" transform="translate(1526 5611)" fill="#004948"/>
  </g>
</svg>
